<svg xmlns="http://www.w3.org/2000/svg" viewBox="0 0 16 16" width="16" height="16">
  <rect width="16" height="16" rx="2" fill="#0F4D8A" />
  <g transform="translate(1.5, 1.5) scale(0.03)" fill="#fff">
    <path d="M329.567 112.202L331.625 125.878L337.206 140.597L307.917 129.439L305.859 115.764L316.684 107.145L329.567 112.202Z"/>
    <path fill-rule="evenodd" clip-rule="evenodd" d="M411.998 40.6179L390.546 50.9965L367.76 35.5471L368.947 19.2482C262.03 -4.35119 112.011 -8.53368 46.6886 19.6166C45.9308 19.9212 45.1791 20.2377 44.4337 20.5659L47.7841 32.2776L34.2407 46.2688L16.4483 41.8241C9.70535 50.0411 4.66583 59.7072 1.86876 70.2837L12.087 74.9352L13.9783 94.5563L0.743164 103.99C2.79084 114.576 7.0546 124.372 13.0329 132.878L42.819 124.477L65.427 146.468L61.0503 163.744C65.5211 164.569 70.1299 165 74.8396 165C89.2892 165 102.79 160.943 114.264 153.906C113.322 149.743 112.825 145.411 112.825 140.963C112.825 139.479 112.881 138.007 112.989 136.55L108.953 129.565L137.517 80.1344H194.647L200.408 90.1053C206.045 89.9344 211.758 89.8442 217.537 89.8442C224.824 89.8442 231.787 89.9875 238.439 90.2553L244.243 80.2113H294.366L319.428 123.58L317.938 126.158C328.63 137.955 343.695 145.722 360.577 146.905L359.711 124.667L393.286 103.499L419.109 117.075C425.18 107.338 428.688 95.8406 428.688 83.5246C428.688 66.9855 422.363 51.9224 411.998 40.6179ZM204.643 75.7246L198.907 68.3921L215.46 50.0609L232.013 68.3921L226.278 75.7246H204.643ZM110.695 74.9684L97.99 58.7256L50.0639 58.7256L37.3587 74.9684L74.027 115.576L110.695 74.9684ZM355.538 58.7256L364.508 70.1936L338.619 98.8635L312.73 70.1936L321.701 58.7256L355.538 58.7256Z"/>
    <path fill-rule="evenodd" clip-rule="evenodd" d="M196.509 104.836L235.271 104.836L256.371 77.8608L215.89 33.0314L175.409 77.8608L196.509 104.836Z"/>
    <path d="M106.047 125.798L119.998 134.881L119.099 151.494L104.249 159.023L90.2991 149.939L91.1981 133.327L106.047 125.798Z"/>
  </g>
</svg>
