<svg width="1116" height="657" viewBox="0 0 1116 657" version="1.1" xmlns="http://www.w3.org/2000/svg" xmlns:xlink="http://www.w3.org/1999/xlink">
<g id="Canvas" fill="none">
<rect width="1116" height="657" fill="white"/>
<g id="Scheme4">
<g id="Rectangle">
<path fill-rule="evenodd" clip-rule="evenodd" d="M 5.8586e-05 195.735C 0.000183088 196.107 0.000572172 196.462 0.0017881 196.803L 0.501785 196.801C 0.503118 197.174 0.505444 197.528 0.509499 197.865L 0.00953514 197.871C 0.0140622 198.247 0.0207385 198.603 0.0305847 198.94L 0.530371 198.925C 0.541306 199.299 0.556142 199.649 0.576222 199.976L 0.0771592 200.007C 0.100465 200.387 0.130811 200.74 0.170322 201.071L 0.666791 201.011C 0.710445 201.377 0.765148 201.709 0.833306 202.015L 0.345241 202.124C 0.426924 202.491 0.527934 202.828 0.652842 203.145L 1.11798 202.962C 1.17839 203.115 1.24468 203.262 1.31745 203.405C 1.377 203.522 1.43949 203.637 1.50482 203.75L 1.0718 204C 1.21184 204.243 1.36413 204.477 1.52786 204.702L 1.93237 204.408C 2.08649 204.621 2.25143 204.824 2.42641 205.018L 2.05484 205.353C 2.24174 205.561 2.43938 205.758 2.64695 205.945L 2.98152 205.574C 3.17586 205.749 3.37948 205.914 3.59161 206.068L 3.29771 206.472C 3.52306 206.636 3.75742 206.788 3.99998 206.928L 4.24997 206.495C 4.36313 206.561 4.47819 206.623 4.59507 206.683L 4.36808 207.128L 4.59507 206.683C 4.7379 206.755 4.88518 206.822 5.03837 206.882L 4.85493 207.347C 5.17166 207.472 5.5091 207.573 5.87624 207.655L 5.98483 207.167C 6.29116 207.235 6.62332 207.29 6.98869 207.333L 6.92937 207.83C 7.26007 207.869 7.61337 207.9 7.99343 207.923L 8.02404 207.424C 8.35149 207.444 8.70065 207.459 9.07481 207.47L 9.06021 207.969C 9.39713 207.979 9.75271 207.986 10.1289 207.99L 10.135 207.49C 10.472 207.495 10.8261 207.497 11.1991 207.498L 11.1973 207.998C 11.5376 207.999 11.893 208 12.2646 208L 12.2647 207.5L 12.8 207.5L 13.2978 207.5L 13.2978 208L 14.2933 208L 14.2933 207.5L 15.2888 207.5L 15.2888 208L 16.2843 208L 16.2843 207.5L 17.2799 207.5L 17.2799 208L 18.2754 208L 18.2754 207.5L 19.2709 207.5L 19.2709 208L 20.2664 208L 20.2664 207.5L 21.2619 207.5L 21.2619 208L 22.2575 208L 22.2575 207.5L 23.253 207.5L 23.253 208L 24.2485 208L 24.2485 207.5L 25.244 207.5L 25.244 208L 26.2396 208L 26.2396 207.5L 27.2351 207.5L 27.2351 208L 28.2306 208L 28.2306 207.5L 29.2261 207.5L 29.2261 208L 30.2216 208L 30.2216 207.5L 31.2172 207.5L 31.2172 208L 32.2127 208L 32.2127 207.5L 33.2082 207.5L 33.2082 208L 34.2037 208L 34.2037 207.5L 35.1992 207.5L 35.1992 208L 36.1948 208L 36.1948 207.5L 37.1903 207.5L 37.1903 208L 38.1858 208L 38.1858 207.5L 39.1813 207.5L 39.1813 208L 40.1769 208L 40.1769 207.5L 41.1724 207.5L 41.1724 208L 42.1679 208L 42.1679 207.5L 43.1634 207.5L 43.1634 208L 44.1589 208L 44.1589 207.5L 45.1545 207.5L 45.1545 208L 46.15 208L 46.15 207.5L 47.1455 207.5L 47.1455 208L 48.141 208L 48.141 207.5L 49.1366 207.5L 49.1366 208L 50.1321 208L 50.1321 207.5L 51.1276 207.5L 51.1276 208L 52.1231 208L 52.1231 207.5L 53.1186 207.5L 53.1186 208L 54.1142 208L 54.1142 207.5L 55.1097 207.5L 55.1097 208L 56.1052 208L 56.1052 207.5L 57.1007 207.5L 57.1007 208L 58.0962 208L 58.0962 207.5L 59.0918 207.5L 59.0918 208L 60.0873 208L 60.0873 207.5L 61.0828 207.5L 61.0828 208L 62.0783 208L 62.0783 207.5L 63.0739 207.5L 63.0739 208L 64.0694 208L 64.0694 207.5L 65.0649 207.5L 65.0649 208L 66.0604 208L 66.0604 207.5L 67.0559 207.5L 67.0559 208L 68.0515 208L 68.0515 207.5L 69.047 207.5L 69.047 208L 70.0425 208L 70.0425 207.5L 71.038 207.5L 71.038 208L 72.0335 208L 72.0335 207.5L 73.0291 207.5L 73.0291 208L 74.0246 208L 74.0246 207.5L 75.0201 207.5L 75.0201 208L 76.0156 208L 76.0156 207.5L 77.0112 207.5L 77.0112 208L 78.0067 208L 78.0067 207.5L 79.0022 207.5L 79.0022 208L 79.9977 208L 79.9977 207.5L 80.9932 207.5L 80.9932 208L 81.9888 208L 81.9888 207.5L 82.9843 207.5L 82.9843 208L 83.9798 208L 83.9798 207.5L 84.9753 207.5L 84.9753 208L 85.9709 208L 85.9709 207.5L 86.9664 207.5L 86.9664 208L 87.9619 208L 87.9619 207.5L 88.9574 207.5L 88.9574 208L 89.9529 208L 89.9529 207.5L 90.9485 207.5L 90.9485 208L 91.944 208L 91.944 207.5L 92.9395 207.5L 92.9395 208L 93.935 208L 93.935 207.5L 94.9305 207.5L 94.9305 208L 95.9261 208L 95.9261 207.5L 96.9216 207.5L 96.9216 208L 97.9171 208L 97.9171 207.5L 98.9126 207.5L 98.9126 208L 99.9082 208L 99.9082 207.5L 100.904 207.5L 100.904 208L 101.899 208L 101.899 207.5L 102.895 207.5L 102.895 208L 103.89 208L 103.89 207.5L 104.886 207.5L 104.886 208L 105.881 208L 105.881 207.5L 106.877 207.5L 106.877 208L 107.872 208L 107.872 207.5L 108.868 207.5L 108.868 208L 109.863 208L 109.863 207.5L 110.859 207.5L 110.859 208L 111.854 208L 111.854 207.5L 112.85 207.5L 112.85 208L 113.845 208L 113.845 207.5L 114.841 207.5L 114.841 208L 115.837 208L 115.837 207.5L 116.832 207.5L 116.832 208L 117.828 208L 117.828 207.5L 118.823 207.5L 118.823 208L 119.819 208L 119.819 207.5L 120.814 207.5L 120.814 208L 121.81 208L 121.81 207.5L 122.805 207.5L 122.805 208L 123.801 208L 123.801 207.5L 124.796 207.5L 124.796 208L 125.792 208L 125.792 207.5L 126.787 207.5L 126.787 208L 127.783 208L 127.783 207.5L 128.778 207.5L 128.778 208L 129.774 208L 129.774 207.5L 130.769 207.5L 130.769 208L 131.765 208L 131.765 207.5L 132.76 207.5L 132.76 208L 133.756 208L 133.756 207.5L 134.751 207.5L 134.751 208L 135.747 208L 135.747 207.5L 136.742 207.5L 136.742 208L 137.738 208L 137.738 207.5L 138.733 207.5L 138.733 208L 139.729 208L 139.729 207.5L 140.725 207.5L 140.725 208L 141.72 208L 141.72 207.5L 142.716 207.5L 142.716 208L 143.711 208L 143.711 207.5L 144.707 207.5L 144.707 208L 145.702 208L 145.702 207.5L 146.2 207.5L 146.735 207.5L 146.735 208C 147.107 208 147.462 207.999 147.803 207.998L 147.801 207.498C 148.174 207.497 148.528 207.495 148.865 207.49L 148.871 207.99C 149.247 207.986 149.603 207.979 149.94 207.969L 149.925 207.47C 150.299 207.459 150.648 207.444 150.976 207.424L 151.007 207.923C 151.387 207.9 151.74 207.869 152.071 207.83L 152.011 207.333C 152.377 207.29 152.709 207.235 153.015 207.167L 153.124 207.655C 153.491 207.573 153.828 207.472 154.145 207.347L 153.962 206.882C 154.115 206.822 154.262 206.755 154.405 206.683C 154.522 206.623 154.637 206.561 154.75 206.495L 155 206.928C 155.243 206.788 155.477 206.636 155.702 206.472L 155.408 206.068C 155.621 205.914 155.824 205.749 156.018 205.574L 156.353 205.945C 156.561 205.758 156.758 205.561 156.945 205.353L 156.574 205.018C 156.749 204.824 156.913 204.621 157.068 204.408L 157.472 204.702C 157.636 204.477 157.788 204.243 157.928 204L 157.495 203.75C 157.561 203.637 157.623 203.522 157.683 203.405C 157.755 203.262 157.822 203.115 157.882 202.962L 158.347 203.145C 158.472 202.828 158.573 202.491 158.655 202.124L 158.167 202.015C 158.235 201.709 158.29 201.377 158.333 201.011L 158.83 201.071C 158.869 200.74 158.9 200.387 158.923 200.007L 158.424 199.976C 158.444 199.649 158.459 199.299 158.47 198.925L 158.969 198.94C 158.979 198.603 158.986 198.247 158.99 197.871L 158.49 197.865C 158.495 197.528 158.497 197.174 158.498 196.801L 158.998 196.803C 158.999 196.462 159 196.107 159 195.735L 158.5 195.735L 158.5 195.2L 158.5 194.699L 159 194.699L 159 193.697L 158.5 193.697L 158.5 192.695L 159 192.695L 159 191.692L 158.5 191.692L 158.5 190.69L 159 190.69L 159 189.688L 158.5 189.688L 158.5 188.686L 159 188.686L 159 187.684L 158.5 187.684L 158.5 186.681L 159 186.681L 159 185.679L 158.5 185.679L 158.5 184.677L 159 184.677L 159 183.675L 158.5 183.675L 158.5 182.673L 159 182.673L 159 181.67L 158.5 181.67L 158.5 180.668L 159 180.668L 159 179.666L 158.5 179.666L 158.5 178.664L 159 178.664L 159 177.662L 158.5 177.662L 158.5 176.659L 159 176.659L 159 175.657L 158.5 175.657L 158.5 174.655L 159 174.655L 159 173.653L 158.5 173.653L 158.5 172.651L 159 172.651L 159 171.648L 158.5 171.648L 158.5 170.646L 159 170.646L 159 169.644L 158.5 169.644L 158.5 168.642L 159 168.642L 159 167.64L 158.5 167.64L 158.5 166.637L 159 166.637L 159 165.635L 158.5 165.635L 158.5 164.633L 159 164.633L 159 163.631L 158.5 163.631L 158.5 162.629L 159 162.629L 159 161.626L 158.5 161.626L 158.5 160.624L 159 160.624L 159 159.622L 158.5 159.622L 158.5 158.62L 159 158.62L 159 157.618L 158.5 157.618L 158.5 156.615L 159 156.615L 159 155.613L 158.5 155.613L 158.5 154.611L 159 154.611L 159 153.609L 158.5 153.609L 158.5 152.607L 159 152.607L 159 151.604L 158.5 151.604L 158.5 150.602L 159 150.602L 159 149.6L 158.5 149.6L 158.5 148.598L 159 148.598L 159 147.596L 158.5 147.596L 158.5 146.593L 159 146.593L 159 145.591L 158.5 145.591L 158.5 144.589L 159 144.589L 159 143.587L 158.5 143.587L 158.5 142.585L 159 142.585L 159 141.582L 158.5 141.582L 158.5 140.58L 159 140.58L 159 139.578L 158.5 139.578L 158.5 138.576L 159 138.576L 159 137.574L 158.5 137.574L 158.5 136.571L 159 136.571L 159 135.569L 158.5 135.569L 158.5 134.567L 159 134.567L 159 133.565L 158.5 133.565L 158.5 132.563L 159 132.563L 159 131.56L 158.5 131.56L 158.5 130.558L 159 130.558L 159 129.556L 158.5 129.556L 158.5 128.554L 159 128.554L 159 127.552L 158.5 127.552L 158.5 126.549L 159 126.549L 159 125.547L 158.5 125.547L 158.5 124.545L 159 124.545L 159 123.543L 158.5 123.543L 158.5 122.541L 159 122.541L 159 121.538L 158.5 121.538L 158.5 120.536L 159 120.536L 159 119.534L 158.5 119.534L 158.5 118.532L 159 118.532L 159 117.53L 158.5 117.53L 158.5 116.527L 159 116.527L 159 115.525L 158.5 115.525L 158.5 114.523L 159 114.523L 159 113.521L 158.5 113.521L 158.5 112.519L 159 112.519L 159 111.517L 158.5 111.517L 158.5 110.514L 159 110.514L 159 109.512L 158.5 109.512L 158.5 108.51L 159 108.51L 159 107.508L 158.5 107.508L 158.5 106.506L 159 106.506L 159 105.503L 158.5 105.503L 158.5 104.501L 159 104.501L 159 103.499L 158.5 103.499L 158.5 102.497L 159 102.497L 159 101.495L 158.5 101.495L 158.5 100.492L 159 100.492L 159 99.4901L 158.5 99.4901L 158.5 98.488L 159 98.488L 159 97.4858L 158.5 97.4858L 158.5 96.4836L 159 96.4836L 159 95.4814L 158.5 95.4814L 158.5 94.4792L 159 94.4792L 159 93.477L 158.5 93.477L 158.5 92.4748L 159 92.4748L 159 91.4726L 158.5 91.4726L 158.5 90.4704L 159 90.4704L 159 89.4682L 158.5 89.4682L 158.5 88.466L 159 88.466L 159 87.4638L 158.5 87.4638L 158.5 86.4616L 159 86.4616L 159 85.4594L 158.5 85.4594L 158.5 84.4572L 159 84.4572L 159 83.455L 158.5 83.455L 158.5 82.4528L 159 82.4528L 159 81.4506L 158.5 81.4506L 158.5 80.4484L 159 80.4484L 159 79.4462L 158.5 79.4462L 158.5 78.444L 159 78.444L 159 77.4418L 158.5 77.4418L 158.5 76.4396L 159 76.4396L 159 75.4374L 158.5 75.4374L 158.5 74.4352L 159 74.4352L 159 73.433L 158.5 73.433L 158.5 72.4308L 159 72.4308L 159 71.4286L 158.5 71.4286L 158.5 70.4264L 159 70.4264L 159 69.4242L 158.5 69.4242L 158.5 68.422L 159 68.422L 159 67.4198L 158.5 67.4198L 158.5 66.4176L 159 66.4176L 159 65.4154L 158.5 65.4154L 158.5 64.4132L 159 64.4132L 159 63.411L 158.5 63.411L 158.5 62.4088L 159 62.4088L 159 61.4066L 158.5 61.4066L 158.5 60.4044L 159 60.4044L 159 59.4022L 158.5 59.4022L 158.5 58.4001L 159 58.4001L 159 57.3979L 158.5 57.3979L 158.5 56.3957L 159 56.3957L 159 55.3935L 158.5 55.3935L 158.5 54.3913L 159 54.3913L 159 53.3891L 158.5 53.3891L 158.5 52.3869L 159 52.3869L 159 51.3847L 158.5 51.3847L 158.5 50.3825L 159 50.3825L 159 49.3803L 158.5 49.3803L 158.5 48.3781L 159 48.3781L 159 47.3759L 158.5 47.3759L 158.5 46.3737L 159 46.3737L 159 45.3715L 158.5 45.3715L 158.5 44.3693L 159 44.3693L 159 43.3671L 158.5 43.3671L 158.5 42.3649L 159 42.3649L 159 41.3627L 158.5 41.3627L 158.5 40.3605L 159 40.3605L 159 39.3583L 158.5 39.3583L 158.5 38.3561L 159 38.3561L 159 37.3539L 158.5 37.3539L 158.5 36.3517L 159 36.3517L 159 35.3495L 158.5 35.3495L 158.5 34.3473L 159 34.3473L 159 33.3451L 158.5 33.3451L 158.5 32.3429L 159 32.3429L 159 31.3407L 158.5 31.3407L 158.5 30.3385L 159 30.3385L 159 29.3363L 158.5 29.3363L 158.5 28.3341L 159 28.3341L 159 27.3319L 158.5 27.3319L 158.5 26.3297L 159 26.3297L 159 25.3275L 158.5 25.3275L 158.5 24.3253L 159 24.3253L 159 23.3232L 158.5 23.3232L 158.5 22.3209L 159 22.3209L 159 21.3188L 158.5 21.3188L 158.5 20.3166L 159 20.3166L 159 19.3144L 158.5 19.3144L 158.5 18.3122L 159 18.3122L 159 17.31L 158.5 17.31L 158.5 16.3078L 159 16.3078L 159 15.3056L 158.5 15.3056L 158.5 14.3034L 159 14.3034L 159 13.3012L 158.5 13.3012L 158.5 12.8L 158.5 12.2647L 159 12.2645C 159 11.893 158.999 11.5376 158.998 11.1973L 158.498 11.1991C 158.497 10.8261 158.495 10.472 158.49 10.135L 158.99 10.1289C 158.986 9.7527 158.979 9.39713 158.969 9.0602L 158.47 9.07481C 158.459 8.70065 158.444 8.35149 158.424 8.02404L 158.923 7.99343C 158.9 7.61337 158.869 7.26007 158.83 6.92937L 158.333 6.98869C 158.29 6.62332 158.235 6.29116 158.167 5.98483L 158.655 5.87624C 158.573 5.5091 158.472 5.17166 158.347 4.85493L 157.882 5.03837C 157.822 4.88518 157.755 4.7379 157.683 4.59507L 158.128 4.36808L 157.683 4.59507C 157.623 4.47819 157.561 4.36313 157.495 4.24997L 157.928 3.99998C 157.788 3.75742 157.636 3.52306 157.472 3.29771L 157.068 3.59161C 156.913 3.37948 156.749 3.17586 156.574 2.98152L 156.945 2.64695C 156.758 2.43938 156.561 2.24174 156.353 2.05484L 156.018 2.42641C 155.824 2.25143 155.621 2.08649 155.408 1.93237L 155.702 1.52786C 155.477 1.36413 155.243 1.21184 155 1.0718L 154.75 1.50482C 154.637 1.43949 154.522 1.377 154.405 1.31745C 154.262 1.24468 154.115 1.17839 153.962 1.11798L 154.145 0.65284C 153.828 0.527932 153.491 0.426923 153.124 0.345239L 153.015 0.833304C 152.709 0.765147 152.377 0.710444 152.011 0.66679L 152.071 0.170321C 151.74 0.13081 151.387 0.100465 151.007 0.0771588L 150.976 0.576221C 150.648 0.556142 150.299 0.541305 149.925 0.530371L 149.94 0.0305846C 149.603 0.0207385 149.247 0.0140621 148.871 0.00953512L 148.865 0.509499C 148.528 0.505444 148.174 0.503118 147.801 0.501785L 147.803 0.0017881C 147.462 0.000572171 147.107 0.000183088 146.735 5.8586e-05L 146.735 0.500059L 146.2 0.5L 145.702 0.5L 145.702 0L 144.707 0L 144.707 0.5L 143.711 0.5L 143.711 0L 142.716 0L 142.716 0.5L 141.72 0.5L 141.72 0L 140.725 0L 140.725 0.5L 139.729 0.5L 139.729 0L 138.734 0L 138.734 0.5L 137.738 0.5L 137.738 0L 136.743 0L 136.743 0.5L 135.747 0.5L 135.747 0L 134.751 0L 134.751 0.5L 133.756 0.5L 133.756 0L 132.76 0L 132.76 0.5L 131.765 0.5L 131.765 0L 130.769 0L 130.769 0.5L 129.774 0.5L 129.774 0L 128.778 0L 128.778 0.5L 127.783 0.5L 127.783 0L 126.787 0L 126.787 0.5L 125.792 0.5L 125.792 0L 124.796 0L 124.796 0.5L 123.801 0.5L 123.801 0L 122.805 0L 122.805 0.5L 121.81 0.5L 121.81 0L 120.814 0L 120.814 0.5L 119.819 0.5L 119.819 0L 118.823 0L 118.823 0.5L 117.828 0.5L 117.828 0L 116.832 0L 116.832 0.5L 115.837 0.5L 115.837 0L 114.841 0L 114.841 0.5L 113.846 0.5L 113.846 0L 112.85 0L 112.85 0.5L 111.854 0.5L 111.854 0L 110.859 0L 110.859 0.5L 109.863 0.5L 109.863 0L 108.868 0L 108.868 0.5L 107.872 0.5L 107.872 0L 106.877 0L 106.877 0.5L 105.881 0.5L 105.881 0L 104.886 0L 104.886 0.5L 103.89 0.5L 103.89 0L 102.895 0L 102.895 0.5L 101.899 0.5L 101.899 0L 100.904 0L 100.904 0.5L 99.9082 0.5L 99.9082 0L 98.9127 0L 98.9127 0.5L 97.9172 0.5L 97.9172 0L 96.9217 0L 96.9217 0.5L 95.9261 0.5L 95.9261 0L 94.9306 0L 94.9306 0.5L 93.9351 0.5L 93.9351 0L 92.9396 0L 92.9396 0.5L 91.944 0.5L 91.944 0L 90.9485 0L 90.9485 0.5L 89.953 0.5L 89.953 0L 88.9575 0L 88.9575 0.5L 87.962 0.5L 87.962 0L 86.9664 0L 86.9664 0.5L 85.9709 0.5L 85.9709 0L 84.9754 0L 84.9754 0.5L 83.9799 0.5L 83.9799 0L 82.9844 0L 82.9844 0.5L 81.9888 0.5L 81.9888 0L 80.9933 0L 80.9933 0.5L 79.9978 0.5L 79.9978 0L 79.0023 0L 79.0023 0.5L 78.0067 0.5L 78.0067 0L 77.0112 0L 77.0112 0.5L 76.0157 0.5L 76.0157 0L 75.0202 0L 75.0202 0.5L 74.0247 0.5L 74.0247 0L 73.0291 0L 73.0291 0.5L 72.0336 0.5L 72.0336 0L 71.0381 0L 71.0381 0.5L 70.0426 0.5L 70.0426 0L 69.0471 0L 69.0471 0.5L 68.0515 0.5L 68.0515 0L 67.056 0L 67.056 0.5L 66.0605 0.5L 66.0605 0L 65.065 0L 65.065 0.5L 64.0694 0.5L 64.0694 0L 63.0739 0L 63.0739 0.5L 62.0784 0.5L 62.0784 0L 61.0829 0L 61.0829 0.5L 60.0874 0.5L 60.0874 0L 59.0918 0L 59.0918 0.5L 58.0963 0.5L 58.0963 0L 57.1008 0L 57.1008 0.5L 56.1053 0.5L 56.1053 0L 55.1097 0L 55.1097 0.5L 54.1142 0.5L 54.1142 0L 53.1187 0L 53.1187 0.5L 52.1232 0.5L 52.1232 0L 51.1277 0L 51.1277 0.5L 50.1321 0.5L 50.1321 0L 49.1366 0L 49.1366 0.5L 48.1411 0.5L 48.1411 0L 47.1456 0L 47.1456 0.5L 46.1501 0.5L 46.1501 0L 45.1545 0L 45.1545 0.5L 44.159 0.5L 44.159 0L 43.1635 0L 43.1635 0.5L 42.168 0.5L 42.168 0L 41.1724 0L 41.1724 0.5L 40.1769 0.5L 40.1769 0L 39.1814 0L 39.1814 0.5L 38.1859 0.5L 38.1859 0L 37.1904 0L 37.1904 0.5L 36.1948 0.5L 36.1948 0L 35.1993 0L 35.1993 0.5L 34.2038 0.5L 34.2038 0L 33.2083 0L 33.2083 0.5L 32.2127 0.5L 32.2127 0L 31.2172 0L 31.2172 0.5L 30.2217 0.5L 30.2217 0L 29.2262 0L 29.2262 0.5L 28.2307 0.5L 28.2307 0L 27.2351 0L 27.2351 0.5L 26.2396 0.5L 26.2396 0L 25.2441 0L 25.2441 0.5L 24.2486 0.5L 24.2486 0L 23.2531 0L 23.2531 0.5L 22.2575 0.5L 22.2575 0L 21.262 0L 21.262 0.5L 20.2665 0.5L 20.2665 0L 19.271 0L 19.271 0.5L 18.2755 0.5L 18.2755 0L 17.2799 0L 17.2799 0.5L 16.2844 0.5L 16.2844 0L 15.2889 0L 15.2889 0.5L 14.2933 0.5L 14.2933 0L 13.2978 0L 13.2978 0.5L 12.8 0.5L 12.2647 0.500059L 12.2645 5.85879e-05C 11.893 0.000183092 11.5376 0.000572177 11.1973 0.0017881L 11.1991 0.501785C 10.8261 0.503118 10.472 0.505444 10.135 0.509499L 10.1289 0.00953513C 9.7527 0.0140622 9.39713 0.0207385 9.0602 0.0305846L 9.07481 0.530371C 8.70065 0.541306 8.35149 0.556142 8.02404 0.576221L 7.99343 0.0771589C 7.61337 0.100465 7.26007 0.13081 6.92937 0.170322L 6.98869 0.666791C 6.62332 0.710444 6.29116 0.765148 5.98483 0.833305L 5.87624 0.345239C 5.5091 0.426923 5.17166 0.527932 4.85493 0.652841L 5.03837 1.11798C 4.88518 1.17839 4.7379 1.24468 4.59507 1.31745C 4.4782 1.377 4.36313 1.43949 4.24997 1.50482L 3.99998 1.07181C 3.75742 1.21184 3.52306 1.36413 3.29771 1.52786L 3.59161 1.93237C 3.37948 2.08649 3.17586 2.25143 2.98152 2.42641L 2.64695 2.05484C 2.43938 2.24174 2.24174 2.43938 2.05484 2.64695L 2.42641 2.98152C 2.25143 3.17586 2.08649 3.37948 1.93237 3.59161L 1.52786 3.29771C 1.36413 3.52306 1.21184 3.75742 1.07181 3.99998L 1.50482 4.24997C 1.43949 4.36313 1.377 4.4782 1.31745 4.59507C 1.24468 4.7379 1.17839 4.88518 1.11798 5.03837L 0.652841 4.85493C 0.527932 5.17166 0.426922 5.5091 0.345239 5.87624L 0.833305 5.98483C 0.765148 6.29116 0.710444 6.62332 0.666791 6.98869L 0.170322 6.92937C 0.13081 7.26007 0.100465 7.61337 0.0771588 7.99343L 0.576221 8.02404C 0.556142 8.35149 0.541306 8.70065 0.530371 9.07481L 0.0305846 9.0602C 0.0207385 9.39713 0.0140621 9.7527 0.00953512 10.1289L 0.509499 10.135C 0.505444 10.472 0.503118 10.8261 0.501785 11.1991L 0.0017881 11.1973C 0.000572177 11.5376 0.000183092 11.893 5.85879e-05 12.2645L 0.500059 12.2647L 0.5 12.8L 0.5 13.3011L 0 13.3011L 0 14.3033L 0.5 14.3033L 0.5 15.3055L 0 15.3055L 0 16.3077L 0.5 16.3077L 0.5 17.3099L 0 17.3099L 0 18.3121L 0.5 18.3121L 0.5 19.3143L 0 19.3143L 0 20.3165L 0.5 20.3165L 0.5 21.3187L 0 21.3187L 0 22.3209L 0.5 22.3209L 0.5 23.3231L 0 23.3231L 0 24.3253L 0.5 24.3253L 0.5 25.3275L 0 25.3275L 0 26.3297L 0.5 26.3297L 0.5 27.3319L 0 27.3319L 0 28.3341L 0.5 28.3341L 0.5 29.3363L 0 29.3363L 0 30.3385L 0.5 30.3385L 0.5 31.3407L 0 31.3407L 0 32.3428L 0.5 32.3428L 0.5 33.345L 0 33.345L 0 34.3472L 0.5 34.3472L 0.5 35.3494L 0 35.3494L 0 36.3516L 0.5 36.3516L 0.5 37.3538L 0 37.3538L 0 38.356L 0.5 38.356L 0.5 39.3582L 0 39.3582L 0 40.3604L 0.5 40.3604L 0.5 41.3626L 0 41.3626L 0 42.3648L 0.5 42.3648L 0.5 43.367L 0 43.367L 0 44.3692L 0.5 44.3692L 0.5 45.3714L 0 45.3714L 0 46.3736L 0.5 46.3736L 0.5 47.3758L 0 47.3758L 0 48.378L 0.5 48.378L 0.5 49.3802L 0 49.3802L 0 50.3824L 0.5 50.3824L 0.5 51.3846L 0 51.3846L 0 52.3868L 0.5 52.3868L 0.5 53.389L 0 53.389L 0 54.3912L 0.5 54.3912L 0.5 55.3934L 0 55.3934L 0 56.3956L 0.5 56.3956L 0.5 57.3978L 0 57.3978L 0 58.4L 0.5 58.4L 0.5 59.4022L 0 59.4022L 0 60.4044L 0.5 60.4044L 0.5 61.4066L 0 61.4066L 0 62.4088L 0.5 62.4088L 0.5 63.411L 0 63.411L 0 64.4132L 0.5 64.4132L 0.5 65.4154L 0 65.4154L 0 66.4176L 0.5 66.4176L 0.5 67.4198L 0 67.4198L 0 68.422L 0.5 68.422L 0.5 69.4241L 0 69.4241L 0 70.4264L 0.5 70.4264L 0.5 71.4285L 0 71.4285L 0 72.4307L 0.5 72.4307L 0.5 73.4329L 0 73.4329L 0 74.4351L 0.5 74.4351L 0.5 75.4373L 0 75.4373L 0 76.4395L 0.5 76.4395L 0.5 77.4417L 0 77.4417L 0 78.4439L 0.5 78.4439L 0.5 79.4461L 0 79.4461L 0 80.4483L 0.5 80.4483L 0.5 81.4505L 0 81.4505L 0 82.4527L 0.5 82.4527L 0.5 83.4549L 0 83.4549L 0 84.4571L 0.5 84.4571L 0.5 85.4593L 0 85.4593L 0 86.4615L 0.5 86.4615L 0.5 87.4637L 0 87.4637L 0 88.4659L 0.5 88.4659L 0.5 89.4681L 0 89.4681L 0 90.4703L 0.5 90.4703L 0.5 91.4725L 0 91.4725L 0 92.4747L 0.5 92.4747L 0.5 93.4769L 0 93.4769L 0 94.4791L 0.5 94.4791L 0.5 95.4813L 0 95.4813L 0 96.4835L 0.5 96.4835L 0.5 97.4857L 0 97.4857L 0 98.4879L 0.5 98.4879L 0.5 99.4901L 0 99.4901L 0 100.492L 0.5 100.492L 0.5 101.494L 0 101.494L 0 102.497L 0.5 102.497L 0.5 103.499L 0 103.499L 0 104.501L 0.5 104.501L 0.5 105.503L 0 105.503L 0 106.505L 0.5 106.505L 0.5 107.508L 0 107.508L 0 108.51L 0.5 108.51L 0.5 109.512L 0 109.512L 0 110.514L 0.5 110.514L 0.5 111.516L 0 111.516L 0 112.519L 0.5 112.519L 0.5 113.521L 0 113.521L 0 114.523L 0.5 114.523L 0.5 115.525L 0 115.525L 0 116.527L 0.5 116.527L 0.5 117.53L 0 117.53L 0 118.532L 0.5 118.532L 0.5 119.534L 0 119.534L 0 120.536L 0.5 120.536L 0.5 121.538L 0 121.538L 0 122.541L 0.5 122.541L 0.5 123.543L 0 123.543L 0 124.545L 0.5 124.545L 0.5 125.547L 0 125.547L 0 126.549L 0.5 126.549L 0.5 127.552L 0 127.552L 0 128.554L 0.5 128.554L 0.5 129.556L 0 129.556L 0 130.558L 0.5 130.558L 0.5 131.56L 0 131.56L 0 132.563L 0.5 132.563L 0.5 133.565L 0 133.565L 0 134.567L 0.5 134.567L 0.5 135.569L 0 135.569L 0 136.571L 0.5 136.571L 0.5 137.574L 0 137.574L 0 138.576L 0.5 138.576L 0.5 139.578L 0 139.578L 0 140.58L 0.5 140.58L 0.5 141.582L 0 141.582L 0 142.585L 0.5 142.585L 0.5 143.587L 0 143.587L 0 144.589L 0.5 144.589L 0.5 145.591L 0 145.591L 0 146.593L 0.5 146.593L 0.5 147.596L 0 147.596L 0 148.598L 0.5 148.598L 0.5 149.6L 0 149.6L 0 150.602L 0.5 150.602L 0.5 151.604L 0 151.604L 0 152.607L 0.5 152.607L 0.5 153.609L 0 153.609L 0 154.611L 0.5 154.611L 0.5 155.613L 0 155.613L 0 156.615L 0.5 156.615L 0.5 157.618L 0 157.618L 0 158.62L 0.5 158.62L 0.5 159.622L 0 159.622L 0 160.624L 0.5 160.624L 0.5 161.626L 0 161.626L 0 162.629L 0.5 162.629L 0.5 163.631L 0 163.631L 0 164.633L 0.5 164.633L 0.5 165.635L 0 165.635L 0 166.637L 0.5 166.637L 0.5 167.639L 0 167.639L 0 168.642L 0.5 168.642L 0.5 169.644L 0 169.644L 0 170.646L 0.5 170.646L 0.5 171.648L 0 171.648L 0 172.65L 0.5 172.65L 0.5 173.653L 0 173.653L 0 174.655L 0.5 174.655L 0.5 175.657L 0 175.657L 0 176.659L 0.5 176.659L 0.5 177.661L 0 177.661L 0 178.664L 0.5 178.664L 0.5 179.666L 0 179.666L 0 180.668L 0.5 180.668L 0.5 181.67L 0 181.67L 0 182.672L 0.5 182.672L 0.5 183.675L 0 183.675L 0 184.677L 0.5 184.677L 0.5 185.679L 0 185.679L 0 186.681L 0.5 186.681L 0.5 187.683L 0 187.683L 0 188.686L 0.5 188.686L 0.5 189.688L 0 189.688L 0 190.69L 0.5 190.69L 0.5 191.692L 0 191.692L 0 192.694L 0.5 192.694L 0.5 193.697L 0 193.697L 0 194.699L 0.5 194.699L 0.5 195.2L 0.500059 195.735L 5.8586e-05 195.735Z" stroke-miterlimit="8" stroke-dasharray="1 1" transform="translate(0 30) scale(3)" stroke="#7B7B7B"/>
</g>
<g id="Rectangle_2">
<path fill-rule="evenodd" clip-rule="evenodd" d="M 0 10.5C 0 8.17553 0 7.01329 0.23975 6.05616C 0.956995 3.19276 3.19276 0.956995 6.05616 0.23975C 7.01329 0 8.17553 0 10.5 0L 129.5 0C 131.824 0 132.987 0 133.944 0.23975C 136.807 0.956995 139.043 3.19276 139.76 6.05616C 140 7.01329 140 8.17553 140 10.5C 140 12.8245 140 13.9867 139.76 14.9438C 139.043 17.8072 136.807 20.043 133.944 20.7602C 132.987 21 131.824 21 129.5 21L 10.5 21C 8.17553 21 7.01329 21 6.05616 20.7602C 3.19276 20.043 0.956995 17.8072 0.23975 14.9438C 0 13.9867 0 12.8245 0 10.5Z" transform="translate(30 0) scale(3)" fill="white"/>
</g>
<g id="Authentification">
<path d="M 3.22877 15L 3.22877 11.4L 5.64377 11.4C 8.91377 11.4 10.0238 9.675 10.0238 7.95C 10.0238 6.285 9.19877 4.5 5.65877 4.5L 1.41377 4.5L 1.41377 15L 3.22877 15ZM 5.71877 6.195C 7.50377 6.195 8.13377 6.93 8.13377 7.935C 8.13377 9.015 7.38377 9.705 5.61377 9.705L 3.22877 9.705L 3.22877 6.195L 5.71877 6.195ZM 10.1884 11.085C 10.1884 13.425 11.9284 15.135 14.3584 15.135C 16.8184 15.135 18.5434 13.425 18.5434 11.085C 18.5434 8.73 16.8184 7.02 14.3584 7.02C 11.8834 7.02 10.1884 8.73 10.1884 11.085ZM 11.9584 11.085C 11.9584 9.555 12.9934 8.61 14.3584 8.61C 15.7084 8.61 16.7734 9.57 16.7734 11.085C 16.7734 12.585 15.7834 13.545 14.3584 13.545C 12.9334 13.545 11.9584 12.495 11.9584 11.085ZM 19.7769 15L 21.4869 15L 21.4869 4.05L 19.7769 4.05L 19.7769 15ZM 23.2228 15L 24.9328 15L 24.9328 7.2L 23.2228 7.2L 23.2228 15ZM 23.0728 4.965C 23.0728 5.505 23.4778 5.895 24.0778 5.895C 24.6328 5.895 25.0678 5.505 25.0678 4.965C 25.0678 4.455 24.6328 4.065 24.0778 4.065C 23.5078 4.065 23.0728 4.455 23.0728 4.965ZM 32.6317 12.435C 32.1967 13.095 31.5517 13.545 30.6667 13.545C 29.0917 13.545 28.0717 12.495 28.0717 11.085C 28.0717 9.615 29.0767 8.61 30.4867 8.61C 31.3717 8.61 31.9567 8.925 32.4817 9.63L 33.7567 8.79C 33.2467 7.755 32.0167 7.02 30.4117 7.02C 27.9517 7.02 26.3017 8.775 26.3017 11.085C 26.3017 13.545 27.9967 15.135 30.5017 15.135C 31.8517 15.135 33.2017 14.475 33.8467 13.215L 32.6317 12.435ZM 34.9751 17.91C 35.2751 18.06 35.6351 18.135 36.0551 18.135C 37.3151 18.135 38.1101 17.355 39.1601 14.775L 42.2201 7.2L 40.3901 7.2L 38.3201 12.465L 35.6351 7.2L 33.6551 7.2L 37.4951 14.535L 37.2251 15.24C 36.8351 16.2 36.4301 16.545 35.9951 16.545C 35.8601 16.545 35.7551 16.515 35.6501 16.455L 34.9751 17.91ZM 46.5578 15L 48.2678 15L 48.2678 7.2L 46.5578 7.2L 46.5578 15ZM 46.4078 4.965C 46.4078 5.505 46.8128 5.895 47.4128 5.895C 47.9678 5.895 48.4028 5.505 48.4028 4.965C 48.4028 4.455 47.9678 4.065 47.4128 4.065C 46.8428 4.065 46.4078 4.455 46.4078 4.965ZM 49.9967 15L 51.7067 15L 51.7067 9.945C 52.0517 9.135 52.7717 8.625 53.6117 8.625C 54.9017 8.625 55.5317 9.225 55.5317 10.725L 55.5317 15L 57.2417 15L 57.2417 10.59C 57.2417 8.1 56.1317 7.035 54.1067 7.035C 53.0267 7.035 52.3217 7.305 51.7067 7.905L 51.7067 7.2L 49.9967 7.2L 49.9967 15ZM 58.9357 15L 60.6457 15L 60.6457 7.2L 58.9357 7.2L 58.9357 15ZM 58.7857 4.965C 58.7857 5.505 59.1907 5.895 59.7907 5.895C 60.3457 5.895 60.7807 5.505 60.7807 4.965C 60.7807 4.455 60.3457 4.065 59.7907 4.065C 59.2207 4.065 58.7857 4.455 58.7857 4.965ZM 61.6246 8.79L 62.9746 8.79L 62.9746 12.285C 62.9746 14.145 63.9496 15.09 65.4346 15.09C 66.4996 15.09 67.3996 14.535 67.8196 13.8L 66.7996 12.84C 66.5296 13.185 66.1696 13.5 65.6896 13.5C 64.9846 13.5 64.6846 13.065 64.6846 11.805L 64.6846 8.79L 67.2046 8.79L 67.2046 7.2L 64.6846 7.2L 64.6846 5.595L 62.9746 5.595L 62.9746 7.2L 61.6246 7.2L 61.6246 8.79ZM 68.7209 15L 70.4309 15L 70.4309 7.2L 68.7209 7.2L 68.7209 15ZM 68.5709 4.965C 68.5709 5.505 68.9759 5.895 69.5759 5.895C 70.1309 5.895 70.5659 5.505 70.5659 4.965C 70.5659 4.455 70.1309 4.065 69.5759 4.065C 69.0059 4.065 68.5709 4.455 68.5709 4.965ZM 72.9997 9.435C 73.7497 8.865 74.3797 8.61 75.2347 8.61C 76.4947 8.61 76.9297 9.24 76.9147 10.365C 76.5547 10.245 75.8647 10.155 75.3097 10.155C 73.2397 10.155 71.6647 10.89 71.6647 12.63C 71.6647 14.13 72.7897 15.09 74.4997 15.09C 75.6547 15.09 76.4497 14.655 76.9147 14.145L 76.9147 15L 78.6247 15L 78.6247 10.23C 78.6247 8.19 77.4847 7.02 75.4297 7.02C 74.1547 7.02 72.8947 7.455 72.1597 8.175L 72.9997 9.435ZM 74.8747 13.605C 74.0047 13.605 73.4347 13.23 73.4347 12.615C 73.4347 11.835 74.2597 11.58 75.4897 11.58C 76.0447 11.58 76.5997 11.685 76.9147 11.79L 76.9147 12.54C 76.5697 13.065 75.9097 13.605 74.8747 13.605ZM 80.1724 15L 81.8824 15L 81.8824 4.05L 80.1724 4.05L 80.1724 15ZM 83.6183 15L 85.3283 15L 85.3283 7.2L 83.6183 7.2L 83.6183 15ZM 83.4683 4.965C 83.4683 5.505 83.8733 5.895 84.4733 5.895C 85.0283 5.895 85.4633 5.505 85.4633 4.965C 85.4633 4.455 85.0283 4.065 84.4733 4.065C 83.9033 4.065 83.4683 4.455 83.4683 4.965ZM 86.8022 8.79L 90.9422 8.79L 86.5622 13.89L 86.5622 15L 93.4472 15L 93.4472 13.41L 89.1422 13.41L 93.5222 8.295L 93.5222 7.2L 86.8022 7.2L 86.8022 8.79ZM 95.4558 9.435C 96.2058 8.865 96.8358 8.61 97.6908 8.61C 98.9508 8.61 99.3858 9.24 99.3708 10.365C 99.0108 10.245 98.3208 10.155 97.7658 10.155C 95.6958 10.155 94.1208 10.89 94.1208 12.63C 94.1208 14.13 95.2458 15.09 96.9558 15.09C 98.1108 15.09 98.9058 14.655 99.3708 14.145L 99.3708 15L 101.081 15L 101.081 10.23C 101.081 8.19 99.9408 7.02 97.8858 7.02C 96.6108 7.02 95.3508 7.455 94.6158 8.175L 95.4558 9.435ZM 97.3308 13.605C 96.4608 13.605 95.8908 13.23 95.8908 12.615C 95.8908 11.835 96.7158 11.58 97.9458 11.58C 98.5008 11.58 99.0558 11.685 99.3708 11.79L 99.3708 12.54C 99.0258 13.065 98.3658 13.605 97.3308 13.605ZM 101.878 8.79L 103.228 8.79L 103.228 12.285C 103.228 14.145 104.203 15.09 105.688 15.09C 106.753 15.09 107.653 14.535 108.073 13.8L 107.053 12.84C 106.783 13.185 106.423 13.5 105.943 13.5C 105.238 13.5 104.938 13.065 104.938 11.805L 104.938 8.79L 107.458 8.79L 107.458 7.2L 104.938 7.2L 104.938 5.595L 103.228 5.595L 103.228 7.2L 101.878 7.2L 101.878 8.79ZM 108.975 15L 110.685 15L 110.685 7.2L 108.975 7.2L 108.975 15ZM 108.825 4.965C 108.825 5.505 109.23 5.895 109.83 5.895C 110.385 5.895 110.82 5.505 110.82 4.965C 110.82 4.455 110.385 4.065 109.83 4.065C 109.26 4.065 108.825 4.455 108.825 4.965ZM 112.054 11.085C 112.054 13.425 113.794 15.135 116.224 15.135C 118.684 15.135 120.409 13.425 120.409 11.085C 120.409 8.73 118.684 7.02 116.224 7.02C 113.749 7.02 112.054 8.73 112.054 11.085ZM 113.824 11.085C 113.824 9.555 114.859 8.61 116.224 8.61C 117.574 8.61 118.639 9.57 118.639 11.085C 118.639 12.585 117.649 13.545 116.224 13.545C 114.799 13.545 113.824 12.495 113.824 11.085ZM 121.642 15L 123.352 15L 123.352 9.945C 123.697 9.135 124.417 8.625 125.257 8.625C 126.547 8.625 127.177 9.225 127.177 10.725L 127.177 15L 128.887 15L 128.887 10.59C 128.887 8.1 127.777 7.035 125.752 7.035C 124.672 7.035 123.967 7.305 123.352 7.905L 123.352 7.2L 121.642 7.2L 121.642 15Z" transform="translate(48 0) scale(3)" fill="#3894F3"/>
</g>
<g id="Line 2.1">
<path d="M 1.5 0L 1.5 -0.5L 0.5 -0.5L 0.5 0L 1.5 0ZM 0.646447 30.6736C 0.841709 30.8688 1.15829 30.8688 1.35355 30.6736L 4.53553 27.4916C 4.7308 27.2963 4.7308 26.9797 4.53553 26.7845C 4.34027 26.5892 4.02369 26.5892 3.82843 26.7845L 1 29.6129L -1.82843 26.7845C -2.02369 26.5892 -2.34027 26.5892 -2.53553 26.7845C -2.7308 26.9797 -2.7308 27.2963 -2.53553 27.4916L 0.646447 30.6736ZM 0.5 0L 0.5 30.32L 1.5 30.32L 1.5 0L 0.5 0Z" transform="translate(235.819 213.32) scale(3)" fill="black"/>
</g>
<g id="Line 2.2">
<path d="M 1.5 0L 1.5 -0.5L 0.5 -0.5L 0.5 0L 1.5 0ZM 0.646447 30.6736C 0.841709 30.8688 1.15829 30.8688 1.35355 30.6736L 4.53553 27.4916C 4.7308 27.2963 4.7308 26.9797 4.53553 26.7845C 4.34027 26.5892 4.02369 26.5892 3.82843 26.7845L 1 29.6129L -1.82843 26.7845C -2.02369 26.5892 -2.34027 26.5892 -2.53553 26.7845C -2.7308 26.9797 -2.7308 27.2963 -2.53553 27.4916L 0.646447 30.6736ZM 0.5 0L 0.5 30.32L 1.5 30.32L 1.5 0L 0.5 0Z" transform="translate(237 465) scale(3)" fill="black"/>
</g>
<g id="Rectangle 3.1">
<path fill-rule="evenodd" clip-rule="evenodd" d="M 2.82843 2.82843L 20.6569 0L 17.8284 17.8284L 0 20.6569L 2.82843 2.82843Z" transform="matrix(2.12132 2.12132 -2.12132 2.12132 238.819 129)" fill="#3894F3"/>
</g>
<g id="Rectangle 3.2">
<path fill-rule="evenodd" clip-rule="evenodd" d="M 2.82843 2.82843L 20.6569 0L 17.8284 17.8284L 0 20.6569L 2.82843 2.82843Z" transform="matrix(2.12132 2.12132 -2.12132 2.12132 238.819 378)" fill="#3894F3"/>
</g>
<g id="instance">
<path d="M 0.835184 13L 2.01818 13L 3.78618 3.9L 2.60318 3.9L 0.835184 13ZM 3.86754 13L 4.92054 13L 5.73954 8.528C 6.20754 7.735 7.14354 7.124 8.14454 7.124C 8.97654 7.124 9.44454 7.527 9.44454 8.398C 9.44454 8.879 9.36654 9.191 9.32754 9.451L 8.58654 13L 9.62654 13L 10.3805 9.36C 10.4585 8.97 10.5235 8.489 10.5235 8.138C 10.5235 6.838 9.74354 6.097 8.40454 6.097C 7.44254 6.097 6.59754 6.513 6.01254 7.085L 6.16854 6.24L 5.11554 6.24L 3.86754 13ZM 15.1311 11.154C 15.1311 11.791 14.4031 12.09 13.7921 12.09C 12.7651 12.09 12.0631 11.661 11.6731 10.907L 10.8281 11.505C 11.2831 12.454 12.2841 13.117 13.7141 13.117C 14.8321 13.117 16.2361 12.532 16.2361 11.102C 16.2361 8.814 13.1291 9.282 13.1291 8.021C 13.1291 7.384 13.8571 7.111 14.5721 7.111C 15.3001 7.111 15.9371 7.462 16.2621 7.904L 17.0031 7.189C 16.5741 6.604 15.8331 6.084 14.4681 6.084C 13.1941 6.084 12.0241 6.747 12.0241 8.06C 12.0241 10.192 15.1311 9.698 15.1311 11.154ZM 17.2647 7.28L 18.4737 7.28L 17.7977 10.543C 17.7197 10.92 17.6547 11.414 17.6547 11.674C 17.6677 12.545 18.3047 13.091 19.2927 13.091C 20.0857 13.091 20.8527 12.714 21.2817 12.181L 20.7487 11.492C 20.5017 11.752 20.1117 12.051 19.5527 12.051C 19.0977 12.051 18.7597 11.843 18.7467 11.271C 18.7467 11.05 18.8247 10.582 18.8897 10.257L 19.5137 7.28L 21.7237 7.28L 21.9187 6.24L 19.7347 6.24L 20.0597 4.771L 19.0327 4.771L 18.6947 6.24L 17.4467 6.24L 17.2647 7.28ZM 26.5894 13L 27.5774 13L 28.9034 6.24L 27.9024 6.24L 27.8244 6.656C 27.4994 6.344 26.9144 6.084 25.9784 6.084C 24.1194 6.084 22.0134 7.709 22.0134 10.4C 22.0134 11.973 22.9494 13.104 24.6004 13.104C 25.7054 13.104 26.4854 12.428 26.7844 11.999L 26.5894 13ZM 24.8734 12.064C 23.8464 12.064 23.1184 11.479 23.1184 10.27C 23.1184 8.372 24.5484 7.111 25.9914 7.111C 26.8234 7.111 27.3434 7.384 27.6034 7.761L 26.9664 10.712C 26.6024 11.31 25.9134 12.064 24.8734 12.064ZM 29.2962 13L 30.3492 13L 31.1682 8.528C 31.6362 7.735 32.5722 7.124 33.5732 7.124C 34.4052 7.124 34.8732 7.527 34.8732 8.398C 34.8732 8.879 34.7952 9.191 34.7562 9.451L 34.0152 13L 35.0552 13L 35.8092 9.36C 35.8872 8.97 35.9522 8.489 35.9522 8.138C 35.9522 6.838 35.1722 6.097 33.8332 6.097C 32.8712 6.097 32.0262 6.513 31.4412 7.085L 31.5972 6.24L 30.5442 6.24L 29.2962 13ZM 41.9638 11.232C 41.2878 11.869 40.7678 12.09 39.9358 12.09C 38.7658 12.09 37.9338 11.388 37.9338 10.166C 37.9338 8.424 39.1818 7.111 40.7288 7.111C 41.5218 7.111 42.0158 7.41 42.3928 8.021L 43.2378 7.462C 42.8348 6.643 42.0418 6.084 40.8458 6.084C 38.5708 6.084 36.8288 7.891 36.8288 10.283C 36.8288 11.999 38.1158 13.117 39.8188 13.117C 40.8978 13.117 41.7428 12.844 42.6398 11.843L 41.9638 11.232ZM 48.4502 11.167C 47.9562 11.752 47.2282 12.09 46.3962 12.09C 45.2262 12.09 44.4592 11.388 44.4592 10.166L 44.4592 9.971C 45.0052 10.062 45.5252 10.101 46.0062 10.101C 48.2422 10.101 49.6202 9.165 49.6202 7.813C 49.6202 6.682 48.7882 6.084 47.3712 6.084C 45.2652 6.084 43.3542 7.891 43.3542 10.283C 43.3542 11.999 44.4982 13.117 46.1882 13.117C 47.2022 13.117 48.4112 12.74 49.0742 11.804L 48.4502 11.167ZM 47.2542 7.111C 48.1122 7.111 48.5152 7.462 48.5152 7.93C 48.5152 8.541 47.6572 9.165 45.8502 9.165C 45.4862 9.165 45.0832 9.139 44.6412 9.087C 45.0572 7.904 46.1232 7.111 47.2542 7.111ZM 59.2802 11.232C 58.6042 11.869 58.0842 12.09 57.2522 12.09C 56.0822 12.09 55.2502 11.388 55.2502 10.166C 55.2502 8.424 56.4982 7.111 58.0452 7.111C 58.8382 7.111 59.3322 7.41 59.7092 8.021L 60.5542 7.462C 60.1512 6.643 59.3582 6.084 58.1622 6.084C 55.8872 6.084 54.1452 7.891 54.1452 10.283C 54.1452 11.999 55.4322 13.117 57.1352 13.117C 58.2142 13.117 59.0592 12.844 59.9562 11.843L 59.2802 11.232ZM 65.5005 13L 66.4885 13L 67.8145 6.24L 66.8135 6.24L 66.7355 6.656C 66.4105 6.344 65.8255 6.084 64.8895 6.084C 63.0305 6.084 60.9245 7.709 60.9245 10.4C 60.9245 11.973 61.8605 13.104 63.5115 13.104C 64.6165 13.104 65.3965 12.428 65.6955 11.999L 65.5005 13ZM 63.7845 12.064C 62.7575 12.064 62.0295 11.479 62.0295 10.27C 62.0295 8.372 63.4595 7.111 64.9025 7.111C 65.7345 7.111 66.2545 7.384 66.5145 7.761L 65.8775 10.712C 65.5135 11.31 64.8245 12.064 63.7845 12.064ZM 73.5244 11.232C 72.8484 11.869 72.3284 12.09 71.4964 12.09C 70.3264 12.09 69.4944 11.388 69.4944 10.166C 69.4944 8.424 70.7424 7.111 72.2894 7.111C 73.0824 7.111 73.5764 7.41 73.9534 8.021L 74.7984 7.462C 74.3954 6.643 73.6024 6.084 72.4064 6.084C 70.1314 6.084 68.3894 7.891 68.3894 10.283C 68.3894 11.999 69.6764 13.117 71.3794 13.117C 72.4584 13.117 73.3034 12.844 74.2004 11.843L 73.5244 11.232ZM 74.9867 13L 76.0397 13L 76.8587 8.528C 77.3267 7.735 78.2627 7.124 79.2637 7.124C 80.0957 7.124 80.5637 7.527 80.5637 8.398C 80.5637 8.879 80.4987 9.165 80.4467 9.451L 79.7187 13L 80.7587 13L 81.4997 9.36C 81.5777 8.97 81.6427 8.489 81.6427 8.138C 81.6427 6.838 80.8627 6.097 79.5237 6.097C 78.5617 6.097 77.7167 6.513 77.1317 7.085L 77.7947 3.51L 76.7417 3.51L 74.9867 13ZM 87.6153 11.167C 87.1213 11.752 86.3933 12.09 85.5613 12.09C 84.3913 12.09 83.6243 11.388 83.6243 10.166L 83.6243 9.971C 84.1703 10.062 84.6903 10.101 85.1713 10.101C 87.4073 10.101 88.7853 9.165 88.7853 7.813C 88.7853 6.682 87.9533 6.084 86.5363 6.084C 84.4303 6.084 82.5193 7.891 82.5193 10.283C 82.5193 11.999 83.6633 13.117 85.3533 13.117C 86.3673 13.117 87.5763 12.74 88.2393 11.804L 87.6153 11.167ZM 86.4193 7.111C 87.2773 7.111 87.6803 7.462 87.6803 7.93C 87.6803 8.541 86.8223 9.165 85.0153 9.165C 84.6513 9.165 84.2483 9.139 83.8063 9.087C 84.2223 7.904 85.2883 7.111 86.4193 7.111Z" transform="translate(108 72) scale(3)" fill="black"/>
</g>
<g id="thread">
<path d="M 1.60451 5.005L 4.76351 5.005L 3.20351 13L 4.38651 13L 5.94651 5.005L 9.11851 5.005L 9.33951 3.9L 1.82551 3.9L 1.60451 5.005ZM 8.46861 13L 9.52161 13L 10.3406 8.528C 10.8086 7.735 11.7446 7.124 12.7456 7.124C 13.5776 7.124 14.0456 7.527 14.0456 8.398C 14.0456 8.879 13.9806 9.165 13.9286 9.451L 13.2006 13L 14.2406 13L 14.9816 9.36C 15.0596 8.97 15.1246 8.489 15.1246 8.138C 15.1246 6.838 14.3446 6.097 13.0056 6.097C 12.0436 6.097 11.1986 6.513 10.6136 7.085L 11.2766 3.51L 10.2236 3.51L 8.46861 13ZM 15.8192 13L 16.8722 13L 17.7822 8.294C 18.0682 7.592 18.6532 7.124 19.2122 7.124C 19.6022 7.124 19.7972 7.254 19.9142 7.462L 20.7072 6.708C 20.4862 6.331 20.1222 6.097 19.5112 6.097C 19.0172 6.097 18.3542 6.37 18.0552 6.851L 18.1722 6.24L 17.1192 6.24L 15.8192 13ZM 25.4136 11.167C 24.9196 11.752 24.1916 12.09 23.3596 12.09C 22.1896 12.09 21.4226 11.388 21.4226 10.166L 21.4226 9.971C 21.9686 10.062 22.4886 10.101 22.9696 10.101C 25.2056 10.101 26.5836 9.165 26.5836 7.813C 26.5836 6.682 25.7516 6.084 24.3346 6.084C 22.2286 6.084 20.3176 7.891 20.3176 10.283C 20.3176 11.999 21.4616 13.117 23.1516 13.117C 24.1656 13.117 25.3746 12.74 26.0376 11.804L 25.4136 11.167ZM 24.2176 7.111C 25.0756 7.111 25.4786 7.462 25.4786 7.93C 25.4786 8.541 24.6206 9.165 22.8136 9.165C 22.4496 9.165 22.0466 9.139 21.6046 9.087C 22.0206 7.904 23.0866 7.111 24.2176 7.111ZM 31.7872 13L 32.7752 13L 34.1012 6.24L 33.1002 6.24L 33.0222 6.656C 32.6972 6.344 32.1122 6.084 31.1762 6.084C 29.3172 6.084 27.2112 7.709 27.2112 10.4C 27.2112 11.973 28.1472 13.104 29.7982 13.104C 30.9032 13.104 31.6832 12.428 31.9822 11.999L 31.7872 13ZM 30.0712 12.064C 29.0442 12.064 28.3162 11.479 28.3162 10.27C 28.3162 8.372 29.7462 7.111 31.1892 7.111C 32.0212 7.111 32.5412 7.384 32.8012 7.761L 32.1642 10.712C 31.8002 11.31 31.1112 12.064 30.0712 12.064ZM 39.317 13L 40.305 13L 42.06 3.51L 41.02 3.51L 40.448 6.656C 40.123 6.344 39.577 6.084 38.641 6.084C 36.86 6.084 34.676 7.709 34.676 10.4C 34.676 11.973 35.586 13.104 37.315 13.104C 38.329 13.104 39.213 12.428 39.512 11.999L 39.317 13ZM 37.536 12.064C 36.509 12.064 35.781 11.479 35.781 10.27C 35.781 8.372 37.237 7.111 38.654 7.111C 39.486 7.111 39.967 7.384 40.227 7.761L 39.694 10.712C 39.33 11.31 38.576 12.064 37.536 12.064ZM 51.1479 11.232C 50.4719 11.869 49.9519 12.09 49.1199 12.09C 47.9499 12.09 47.1179 11.388 47.1179 10.166C 47.1179 8.424 48.3659 7.111 49.9129 7.111C 50.7059 7.111 51.1999 7.41 51.5769 8.021L 52.4219 7.462C 52.0189 6.643 51.2259 6.084 50.0299 6.084C 47.7549 6.084 46.0129 7.891 46.0129 10.283C 46.0129 11.999 47.2999 13.117 49.0029 13.117C 50.0819 13.117 50.9269 12.844 51.8239 11.843L 51.1479 11.232ZM 57.3682 13L 58.3562 13L 59.6822 6.24L 58.6812 6.24L 58.6032 6.656C 58.2782 6.344 57.6932 6.084 56.7572 6.084C 54.8982 6.084 52.7922 7.709 52.7922 10.4C 52.7922 11.973 53.7282 13.104 55.3792 13.104C 56.4842 13.104 57.2642 12.428 57.5632 11.999L 57.3682 13ZM 55.6522 12.064C 54.6252 12.064 53.8972 11.479 53.8972 10.27C 53.8972 8.372 55.3272 7.111 56.7702 7.111C 57.6022 7.111 58.1222 7.384 58.3822 7.761L 57.7452 10.712C 57.3812 11.31 56.6922 12.064 55.6522 12.064ZM 65.3921 11.232C 64.7161 11.869 64.1961 12.09 63.3641 12.09C 62.1941 12.09 61.3621 11.388 61.3621 10.166C 61.3621 8.424 62.6101 7.111 64.1571 7.111C 64.9501 7.111 65.4441 7.41 65.8211 8.021L 66.6661 7.462C 66.2631 6.643 65.4701 6.084 64.2741 6.084C 61.9991 6.084 60.2571 7.891 60.2571 10.283C 60.2571 11.999 61.5441 13.117 63.2471 13.117C 64.3261 13.117 65.1711 12.844 66.0681 11.843L 65.3921 11.232ZM 66.8544 13L 67.9074 13L 68.7264 8.528C 69.1944 7.735 70.1304 7.124 71.1314 7.124C 71.9634 7.124 72.4314 7.527 72.4314 8.398C 72.4314 8.879 72.3664 9.165 72.3144 9.451L 71.5864 13L 72.6264 13L 73.3674 9.36C 73.4454 8.97 73.5104 8.489 73.5104 8.138C 73.5104 6.838 72.7304 6.097 71.3914 6.097C 70.4294 6.097 69.5844 6.513 68.9994 7.085L 69.6624 3.51L 68.6094 3.51L 66.8544 13ZM 79.4829 11.167C 78.9889 11.752 78.2609 12.09 77.4289 12.09C 76.2589 12.09 75.4919 11.388 75.4919 10.166L 75.4919 9.971C 76.0379 10.062 76.5579 10.101 77.0389 10.101C 79.2749 10.101 80.6529 9.165 80.6529 7.813C 80.6529 6.682 79.8209 6.084 78.4039 6.084C 76.2979 6.084 74.3869 7.891 74.3869 10.283C 74.3869 11.999 75.5309 13.117 77.2209 13.117C 78.2349 13.117 79.4439 12.74 80.1069 11.804L 79.4829 11.167ZM 78.2869 7.111C 79.1449 7.111 79.5479 7.462 79.5479 7.93C 79.5479 8.541 78.6899 9.165 76.8829 9.165C 76.5189 9.165 76.1159 9.139 75.6739 9.087C 76.0899 7.904 77.1559 7.111 78.2869 7.111Z" transform="translate(114 327) scale(3)" fill="black"/>
</g>
<g id="new instance">
<path d="M 0.728738 13L 1.91174 13L 3.67974 3.9L 2.49674 3.9L 0.728738 13ZM 3.76109 13L 4.81409 13L 5.63309 8.528C 6.10109 7.735 7.03709 7.124 8.03809 7.124C 8.87009 7.124 9.33809 7.527 9.33809 8.398C 9.33809 8.879 9.26009 9.191 9.22109 9.451L 8.48009 13L 9.52009 13L 10.2741 9.36C 10.3521 8.97 10.4171 8.489 10.4171 8.138C 10.4171 6.838 9.63709 6.097 8.29809 6.097C 7.33609 6.097 6.49109 6.513 5.90609 7.085L 6.06209 6.24L 5.00909 6.24L 3.76109 13ZM 11.1117 13L 12.1647 13L 13.4127 6.24L 12.3597 6.24L 11.1117 13ZM 12.5937 4.186C 12.5937 4.55 12.8667 4.81 13.2437 4.81C 13.6077 4.81 13.9067 4.55 13.9067 4.186C 13.9067 3.835 13.6077 3.536 13.2437 3.536C 12.8667 3.536 12.5937 3.835 12.5937 4.186ZM 13.9845 7.28L 15.1935 7.28L 14.5175 10.543C 14.4395 10.92 14.3745 11.414 14.3745 11.674C 14.3875 12.545 15.0245 13.091 16.0125 13.091C 16.8055 13.091 17.5725 12.714 18.0015 12.181L 17.4685 11.492C 17.2215 11.752 16.8315 12.051 16.2725 12.051C 15.8175 12.051 15.4795 11.843 15.4665 11.271C 15.4665 11.05 15.5445 10.582 15.6095 10.257L 16.2335 7.28L 18.4435 7.28L 18.6385 6.24L 16.4545 6.24L 16.7795 4.771L 15.7525 4.771L 15.4145 6.24L 14.1665 6.24L 13.9845 7.28ZM 18.5511 13L 19.6041 13L 20.8521 6.24L 19.7991 6.24L 18.5511 13ZM 20.0331 4.186C 20.0331 4.55 20.3061 4.81 20.6831 4.81C 21.0471 4.81 21.3461 4.55 21.3461 4.186C 21.3461 3.835 21.0471 3.536 20.6831 3.536C 20.3061 3.536 20.0331 3.835 20.0331 4.186ZM 26.0259 13L 27.0139 13L 28.3399 6.24L 27.3389 6.24L 27.2609 6.656C 26.9359 6.344 26.3509 6.084 25.4149 6.084C 23.5559 6.084 21.4499 7.709 21.4499 10.4C 21.4499 11.973 22.3859 13.104 24.0369 13.104C 25.1419 13.104 25.9219 12.428 26.2209 11.999L 26.0259 13ZM 24.3099 12.064C 23.2829 12.064 22.5549 11.479 22.5549 10.27C 22.5549 8.372 23.9849 7.111 25.4279 7.111C 26.2599 7.111 26.7799 7.384 27.0399 7.761L 26.4029 10.712C 26.0389 11.31 25.3499 12.064 24.3099 12.064ZM 28.7328 13L 29.7728 13L 31.5278 3.51L 30.4878 3.51L 28.7328 13ZM 31.3861 13L 32.4391 13L 33.6871 6.24L 32.6341 6.24L 31.3861 13ZM 32.8681 4.186C 32.8681 4.55 33.1411 4.81 33.5181 4.81C 33.8821 4.81 34.1811 4.55 34.1811 4.186C 34.1811 3.835 33.8821 3.536 33.5181 3.536C 33.1411 3.536 32.8681 3.835 32.8681 4.186ZM 34.8699 7.28L 38.6399 7.28L 33.6609 12.35L 33.6609 13L 39.1729 13L 39.3679 11.96L 35.4419 11.96L 40.4469 6.838L 40.4469 6.24L 35.0519 6.24L 34.8699 7.28ZM 45.3731 11.167C 44.8791 11.752 44.1511 12.09 43.3191 12.09C 42.1491 12.09 41.3821 11.388 41.3821 10.166L 41.3821 9.971C 41.9281 10.062 42.4481 10.101 42.9291 10.101C 45.1651 10.101 46.5431 9.165 46.5431 7.813C 46.5431 6.682 45.7111 6.084 44.2941 6.084C 42.1881 6.084 40.2771 7.891 40.2771 10.283C 40.2771 11.999 41.4211 13.117 43.1111 13.117C 44.1251 13.117 45.3341 12.74 45.9971 11.804L 45.3731 11.167ZM 44.1771 7.111C 45.0351 7.111 45.4381 7.462 45.4381 7.93C 45.4381 8.541 44.5801 9.165 42.7731 9.165C 42.4091 9.165 42.0061 9.139 41.5641 9.087C 41.9801 7.904 43.0461 7.111 44.1771 7.111ZM 50.8861 13L 51.9391 13L 52.7581 8.528C 53.2261 7.735 54.1621 7.124 55.1631 7.124C 55.9951 7.124 56.4631 7.527 56.4631 8.398C 56.4631 8.879 56.3851 9.191 56.3461 9.451L 55.6051 13L 56.6451 13L 57.3991 9.36C 57.4771 8.97 57.5421 8.489 57.5421 8.138C 57.5421 6.838 56.7621 6.097 55.4231 6.097C 54.4611 6.097 53.6161 6.513 53.0311 7.085L 53.1871 6.24L 52.1341 6.24L 50.8861 13ZM 63.5147 11.167C 63.0207 11.752 62.2927 12.09 61.4607 12.09C 60.2907 12.09 59.5237 11.388 59.5237 10.166L 59.5237 9.971C 60.0697 10.062 60.5897 10.101 61.0707 10.101C 63.3067 10.101 64.6847 9.165 64.6847 7.813C 64.6847 6.682 63.8527 6.084 62.4357 6.084C 60.3297 6.084 58.4187 7.891 58.4187 10.283C 58.4187 11.999 59.5627 13.117 61.2527 13.117C 62.2667 13.117 63.4757 12.74 64.1387 11.804L 63.5147 11.167ZM 62.3187 7.111C 63.1767 7.111 63.5797 7.462 63.5797 7.93C 63.5797 8.541 62.7217 9.165 60.9147 9.165C 60.5507 9.165 60.1477 9.139 59.7057 9.087C 60.1217 7.904 61.1877 7.111 62.3187 7.111ZM 74.9582 6.24L 73.8922 6.24L 71.5002 11.167L 70.6422 6.24L 69.7712 6.24L 67.1062 11.128L 66.4692 6.24L 65.4162 6.24L 66.3262 13L 67.1582 13L 69.9142 7.93L 70.7852 13L 71.6302 13L 74.9582 6.24ZM 78.4222 13L 79.4752 13L 80.7232 6.24L 79.6702 6.24L 78.4222 13ZM 79.9042 4.186C 79.9042 4.55 80.1772 4.81 80.5542 4.81C 80.9182 4.81 81.2172 4.55 81.2172 4.186C 81.2172 3.835 80.9182 3.536 80.5542 3.536C 80.1772 3.536 79.9042 3.835 79.9042 4.186ZM 81.139 13L 82.192 13L 83.011 8.528C 83.479 7.735 84.415 7.124 85.416 7.124C 86.248 7.124 86.716 7.527 86.716 8.398C 86.716 8.879 86.638 9.191 86.599 9.451L 85.858 13L 86.898 13L 87.652 9.36C 87.73 8.97 87.795 8.489 87.795 8.138C 87.795 6.838 87.015 6.097 85.676 6.097C 84.714 6.097 83.869 6.513 83.284 7.085L 83.44 6.24L 82.387 6.24L 81.139 13ZM 92.4026 11.154C 92.4026 11.791 91.6746 12.09 91.0636 12.09C 90.0366 12.09 89.3346 11.661 88.9446 10.907L 88.0996 11.505C 88.5546 12.454 89.5556 13.117 90.9856 13.117C 92.1036 13.117 93.5076 12.532 93.5076 11.102C 93.5076 8.814 90.4006 9.282 90.4006 8.021C 90.4006 7.384 91.1286 7.111 91.8436 7.111C 92.5716 7.111 93.2086 7.462 93.5336 7.904L 94.2746 7.189C 93.8456 6.604 93.1046 6.084 91.7396 6.084C 90.4656 6.084 89.2956 6.747 89.2956 8.06C 89.2956 10.192 92.4026 9.698 92.4026 11.154ZM 94.5362 7.28L 95.7452 7.28L 95.0692 10.543C 94.9912 10.92 94.9262 11.414 94.9262 11.674C 94.9392 12.545 95.5762 13.091 96.5642 13.091C 97.3572 13.091 98.1242 12.714 98.5532 12.181L 98.0202 11.492C 97.7732 11.752 97.3832 12.051 96.8242 12.051C 96.3692 12.051 96.0312 11.843 96.0182 11.271C 96.0182 11.05 96.0962 10.582 96.1612 10.257L 96.7852 7.28L 98.9952 7.28L 99.1902 6.24L 97.0062 6.24L 97.3312 4.771L 96.3042 4.771L 95.9662 6.24L 94.7182 6.24L 94.5362 7.28ZM 103.861 13L 104.849 13L 106.175 6.24L 105.174 6.24L 105.096 6.656C 104.771 6.344 104.186 6.084 103.25 6.084C 101.391 6.084 99.2849 7.709 99.2849 10.4C 99.2849 11.973 100.221 13.104 101.872 13.104C 102.977 13.104 103.757 12.428 104.056 11.999L 103.861 13ZM 102.145 12.064C 101.118 12.064 100.39 11.479 100.39 10.27C 100.39 8.372 101.82 7.111 103.263 7.111C 104.095 7.111 104.615 7.384 104.875 7.761L 104.238 10.712C 103.874 11.31 103.185 12.064 102.145 12.064ZM 106.568 13L 107.621 13L 108.44 8.528C 108.908 7.735 109.844 7.124 110.845 7.124C 111.677 7.124 112.145 7.527 112.145 8.398C 112.145 8.879 112.067 9.191 112.028 9.451L 111.287 13L 112.327 13L 113.081 9.36C 113.159 8.97 113.224 8.489 113.224 8.138C 113.224 6.838 112.444 6.097 111.105 6.097C 110.143 6.097 109.298 6.513 108.713 7.085L 108.869 6.24L 107.816 6.24L 106.568 13ZM 119.235 11.232C 118.559 11.869 118.039 12.09 117.207 12.09C 116.037 12.09 115.205 11.388 115.205 10.166C 115.205 8.424 116.453 7.111 118 7.111C 118.793 7.111 119.287 7.41 119.664 8.021L 120.509 7.462C 120.106 6.643 119.313 6.084 118.117 6.084C 115.842 6.084 114.1 7.891 114.1 10.283C 114.1 11.999 115.387 13.117 117.09 13.117C 118.169 13.117 119.014 12.844 119.911 11.843L 119.235 11.232ZM 125.722 11.167C 125.228 11.752 124.5 12.09 123.668 12.09C 122.498 12.09 121.731 11.388 121.731 10.166L 121.731 9.971C 122.277 10.062 122.797 10.101 123.278 10.101C 125.514 10.101 126.892 9.165 126.892 7.813C 126.892 6.682 126.06 6.084 124.643 6.084C 122.537 6.084 120.626 7.891 120.626 10.283C 120.626 11.999 121.77 13.117 123.46 13.117C 124.474 13.117 125.683 12.74 126.346 11.804L 125.722 11.167ZM 124.526 7.111C 125.384 7.111 125.787 7.462 125.787 7.93C 125.787 8.541 124.929 9.165 123.122 9.165C 122.758 9.165 122.355 9.139 121.913 9.087C 122.329 7.904 123.395 7.111 124.526 7.111Z" transform="translate(48 579) scale(3)" fill="black"/>
</g>
</g>
<g id="Scheme4_2">
<g id="Rectangle_3">
<path fill-rule="evenodd" clip-rule="evenodd" d="M 5.8586e-05 195.735C 0.000183088 196.107 0.000572172 196.462 0.0017881 196.803L 0.501785 196.801C 0.503118 197.174 0.505444 197.528 0.509499 197.865L 0.00953514 197.871C 0.0140622 198.247 0.0207385 198.603 0.0305847 198.94L 0.530371 198.925C 0.541306 199.299 0.556142 199.649 0.576222 199.976L 0.0771592 200.007C 0.100465 200.387 0.130811 200.74 0.170322 201.071L 0.666791 201.011C 0.710445 201.377 0.765148 201.709 0.833306 202.015L 0.345241 202.124C 0.426924 202.491 0.527934 202.828 0.652842 203.145L 1.11798 202.962C 1.17839 203.115 1.24468 203.262 1.31745 203.405C 1.377 203.522 1.43949 203.637 1.50482 203.75L 1.0718 204C 1.21184 204.243 1.36413 204.477 1.52786 204.702L 1.93237 204.408C 2.08649 204.621 2.25143 204.824 2.42641 205.018L 2.05484 205.353C 2.24174 205.561 2.43938 205.758 2.64695 205.945L 2.98152 205.574C 3.17586 205.749 3.37948 205.914 3.59161 206.068L 3.29771 206.472C 3.52306 206.636 3.75742 206.788 3.99998 206.928L 4.24997 206.495C 4.36313 206.561 4.47819 206.623 4.59507 206.683L 4.36808 207.128L 4.59507 206.683C 4.7379 206.755 4.88518 206.822 5.03837 206.882L 4.85493 207.347C 5.17166 207.472 5.5091 207.573 5.87624 207.655L 5.98483 207.167C 6.29116 207.235 6.62332 207.29 6.98869 207.333L 6.92937 207.83C 7.26007 207.869 7.61337 207.9 7.99343 207.923L 8.02404 207.424C 8.35149 207.444 8.70065 207.459 9.07481 207.47L 9.06021 207.969C 9.39713 207.979 9.75271 207.986 10.1289 207.99L 10.135 207.49C 10.472 207.495 10.8261 207.497 11.1991 207.498L 11.1973 207.998C 11.5376 207.999 11.893 208 12.2646 208L 12.2647 207.5L 12.8 207.5L 13.2978 207.5L 13.2978 208L 14.2933 208L 14.2933 207.5L 15.2888 207.5L 15.2888 208L 16.2843 208L 16.2843 207.5L 17.2799 207.5L 17.2799 208L 18.2754 208L 18.2754 207.5L 19.2709 207.5L 19.2709 208L 20.2664 208L 20.2664 207.5L 21.2619 207.5L 21.2619 208L 22.2575 208L 22.2575 207.5L 23.253 207.5L 23.253 208L 24.2485 208L 24.2485 207.5L 25.244 207.5L 25.244 208L 26.2396 208L 26.2396 207.5L 27.2351 207.5L 27.2351 208L 28.2306 208L 28.2306 207.5L 29.2261 207.5L 29.2261 208L 30.2216 208L 30.2216 207.5L 31.2172 207.5L 31.2172 208L 32.2127 208L 32.2127 207.5L 33.2082 207.5L 33.2082 208L 34.2037 208L 34.2037 207.5L 35.1992 207.5L 35.1992 208L 36.1948 208L 36.1948 207.5L 37.1903 207.5L 37.1903 208L 38.1858 208L 38.1858 207.5L 39.1813 207.5L 39.1813 208L 40.1769 208L 40.1769 207.5L 41.1724 207.5L 41.1724 208L 42.1679 208L 42.1679 207.5L 43.1634 207.5L 43.1634 208L 44.1589 208L 44.1589 207.5L 45.1545 207.5L 45.1545 208L 46.15 208L 46.15 207.5L 47.1455 207.5L 47.1455 208L 48.141 208L 48.141 207.5L 49.1366 207.5L 49.1366 208L 50.1321 208L 50.1321 207.5L 51.1276 207.5L 51.1276 208L 52.1231 208L 52.1231 207.5L 53.1186 207.5L 53.1186 208L 54.1142 208L 54.1142 207.5L 55.1097 207.5L 55.1097 208L 56.1052 208L 56.1052 207.5L 57.1007 207.5L 57.1007 208L 58.0962 208L 58.0962 207.5L 59.0918 207.5L 59.0918 208L 60.0873 208L 60.0873 207.5L 61.0828 207.5L 61.0828 208L 62.0783 208L 62.0783 207.5L 63.0739 207.5L 63.0739 208L 64.0694 208L 64.0694 207.5L 65.0649 207.5L 65.0649 208L 66.0604 208L 66.0604 207.5L 67.0559 207.5L 67.0559 208L 68.0515 208L 68.0515 207.5L 69.047 207.5L 69.047 208L 70.0425 208L 70.0425 207.5L 71.038 207.5L 71.038 208L 72.0335 208L 72.0335 207.5L 73.0291 207.5L 73.0291 208L 74.0246 208L 74.0246 207.5L 75.0201 207.5L 75.0201 208L 76.0156 208L 76.0156 207.5L 77.0112 207.5L 77.0112 208L 78.0067 208L 78.0067 207.5L 79.0022 207.5L 79.0022 208L 79.9977 208L 79.9977 207.5L 80.9932 207.5L 80.9932 208L 81.9888 208L 81.9888 207.5L 82.9843 207.5L 82.9843 208L 83.9798 208L 83.9798 207.5L 84.9753 207.5L 84.9753 208L 85.9709 208L 85.9709 207.5L 86.9664 207.5L 86.9664 208L 87.9619 208L 87.9619 207.5L 88.9574 207.5L 88.9574 208L 89.9529 208L 89.9529 207.5L 90.9485 207.5L 90.9485 208L 91.944 208L 91.944 207.5L 92.9395 207.5L 92.9395 208L 93.935 208L 93.935 207.5L 94.9305 207.5L 94.9305 208L 95.9261 208L 95.9261 207.5L 96.9216 207.5L 96.9216 208L 97.9171 208L 97.9171 207.5L 98.9126 207.5L 98.9126 208L 99.9082 208L 99.9082 207.5L 100.904 207.5L 100.904 208L 101.899 208L 101.899 207.5L 102.895 207.5L 102.895 208L 103.89 208L 103.89 207.5L 104.886 207.5L 104.886 208L 105.881 208L 105.881 207.5L 106.877 207.5L 106.877 208L 107.872 208L 107.872 207.5L 108.868 207.5L 108.868 208L 109.863 208L 109.863 207.5L 110.859 207.5L 110.859 208L 111.854 208L 111.854 207.5L 112.85 207.5L 112.85 208L 113.845 208L 113.845 207.5L 114.841 207.5L 114.841 208L 115.837 208L 115.837 207.5L 116.832 207.5L 116.832 208L 117.828 208L 117.828 207.5L 118.823 207.5L 118.823 208L 119.819 208L 119.819 207.5L 120.814 207.5L 120.814 208L 121.81 208L 121.81 207.5L 122.805 207.5L 122.805 208L 123.801 208L 123.801 207.5L 124.796 207.5L 124.796 208L 125.792 208L 125.792 207.5L 126.787 207.5L 126.787 208L 127.783 208L 127.783 207.5L 128.778 207.5L 128.778 208L 129.774 208L 129.774 207.5L 130.769 207.5L 130.769 208L 131.765 208L 131.765 207.5L 132.76 207.5L 132.76 208L 133.756 208L 133.756 207.5L 134.751 207.5L 134.751 208L 135.747 208L 135.747 207.5L 136.742 207.5L 136.742 208L 137.738 208L 137.738 207.5L 138.733 207.5L 138.733 208L 139.729 208L 139.729 207.5L 140.725 207.5L 140.725 208L 141.72 208L 141.72 207.5L 142.716 207.5L 142.716 208L 143.711 208L 143.711 207.5L 144.707 207.5L 144.707 208L 145.702 208L 145.702 207.5L 146.2 207.5L 146.735 207.5L 146.735 208C 147.107 208 147.462 207.999 147.803 207.998L 147.801 207.498C 148.174 207.497 148.528 207.495 148.865 207.49L 148.871 207.99C 149.247 207.986 149.603 207.979 149.94 207.969L 149.925 207.47C 150.299 207.459 150.648 207.444 150.976 207.424L 151.007 207.923C 151.387 207.9 151.74 207.869 152.071 207.83L 152.011 207.333C 152.377 207.29 152.709 207.235 153.015 207.167L 153.124 207.655C 153.491 207.573 153.828 207.472 154.145 207.347L 153.962 206.882C 154.115 206.822 154.262 206.755 154.405 206.683C 154.522 206.623 154.637 206.561 154.75 206.495L 155 206.928C 155.243 206.788 155.477 206.636 155.702 206.472L 155.408 206.068C 155.621 205.914 155.824 205.749 156.018 205.574L 156.353 205.945C 156.561 205.758 156.758 205.561 156.945 205.353L 156.574 205.018C 156.749 204.824 156.913 204.621 157.068 204.408L 157.472 204.702C 157.636 204.477 157.788 204.243 157.928 204L 157.495 203.75C 157.561 203.637 157.623 203.522 157.683 203.405C 157.755 203.262 157.822 203.115 157.882 202.962L 158.347 203.145C 158.472 202.828 158.573 202.491 158.655 202.124L 158.167 202.015C 158.235 201.709 158.29 201.377 158.333 201.011L 158.83 201.071C 158.869 200.74 158.9 200.387 158.923 200.007L 158.424 199.976C 158.444 199.649 158.459 199.299 158.47 198.925L 158.969 198.94C 158.979 198.603 158.986 198.247 158.99 197.871L 158.49 197.865C 158.495 197.528 158.497 197.174 158.498 196.801L 158.998 196.803C 158.999 196.462 159 196.107 159 195.735L 158.5 195.735L 158.5 195.2L 158.5 194.699L 159 194.699L 159 193.697L 158.5 193.697L 158.5 192.695L 159 192.695L 159 191.692L 158.5 191.692L 158.5 190.69L 159 190.69L 159 189.688L 158.5 189.688L 158.5 188.686L 159 188.686L 159 187.684L 158.5 187.684L 158.5 186.681L 159 186.681L 159 185.679L 158.5 185.679L 158.5 184.677L 159 184.677L 159 183.675L 158.5 183.675L 158.5 182.673L 159 182.673L 159 181.67L 158.5 181.67L 158.5 180.668L 159 180.668L 159 179.666L 158.5 179.666L 158.5 178.664L 159 178.664L 159 177.662L 158.5 177.662L 158.5 176.659L 159 176.659L 159 175.657L 158.5 175.657L 158.5 174.655L 159 174.655L 159 173.653L 158.5 173.653L 158.5 172.651L 159 172.651L 159 171.648L 158.5 171.648L 158.5 170.646L 159 170.646L 159 169.644L 158.5 169.644L 158.5 168.642L 159 168.642L 159 167.64L 158.5 167.64L 158.5 166.637L 159 166.637L 159 165.635L 158.5 165.635L 158.5 164.633L 159 164.633L 159 163.631L 158.5 163.631L 158.5 162.629L 159 162.629L 159 161.626L 158.5 161.626L 158.5 160.624L 159 160.624L 159 159.622L 158.5 159.622L 158.5 158.62L 159 158.62L 159 157.618L 158.5 157.618L 158.5 156.615L 159 156.615L 159 155.613L 158.5 155.613L 158.5 154.611L 159 154.611L 159 153.609L 158.5 153.609L 158.5 152.607L 159 152.607L 159 151.604L 158.5 151.604L 158.5 150.602L 159 150.602L 159 149.6L 158.5 149.6L 158.5 148.598L 159 148.598L 159 147.596L 158.5 147.596L 158.5 146.593L 159 146.593L 159 145.591L 158.5 145.591L 158.5 144.589L 159 144.589L 159 143.587L 158.5 143.587L 158.5 142.585L 159 142.585L 159 141.582L 158.5 141.582L 158.5 140.58L 159 140.58L 159 139.578L 158.5 139.578L 158.5 138.576L 159 138.576L 159 137.574L 158.5 137.574L 158.5 136.571L 159 136.571L 159 135.569L 158.5 135.569L 158.5 134.567L 159 134.567L 159 133.565L 158.5 133.565L 158.5 132.563L 159 132.563L 159 131.56L 158.5 131.56L 158.5 130.558L 159 130.558L 159 129.556L 158.5 129.556L 158.5 128.554L 159 128.554L 159 127.552L 158.5 127.552L 158.5 126.549L 159 126.549L 159 125.547L 158.5 125.547L 158.5 124.545L 159 124.545L 159 123.543L 158.5 123.543L 158.5 122.541L 159 122.541L 159 121.538L 158.5 121.538L 158.5 120.536L 159 120.536L 159 119.534L 158.5 119.534L 158.5 118.532L 159 118.532L 159 117.53L 158.5 117.53L 158.5 116.527L 159 116.527L 159 115.525L 158.5 115.525L 158.5 114.523L 159 114.523L 159 113.521L 158.5 113.521L 158.5 112.519L 159 112.519L 159 111.517L 158.5 111.517L 158.5 110.514L 159 110.514L 159 109.512L 158.5 109.512L 158.5 108.51L 159 108.51L 159 107.508L 158.5 107.508L 158.5 106.506L 159 106.506L 159 105.503L 158.5 105.503L 158.5 104.501L 159 104.501L 159 103.499L 158.5 103.499L 158.5 102.497L 159 102.497L 159 101.495L 158.5 101.495L 158.5 100.492L 159 100.492L 159 99.4901L 158.5 99.4901L 158.5 98.488L 159 98.488L 159 97.4858L 158.5 97.4858L 158.5 96.4836L 159 96.4836L 159 95.4814L 158.5 95.4814L 158.5 94.4792L 159 94.4792L 159 93.477L 158.5 93.477L 158.5 92.4748L 159 92.4748L 159 91.4726L 158.5 91.4726L 158.5 90.4704L 159 90.4704L 159 89.4682L 158.5 89.4682L 158.5 88.466L 159 88.466L 159 87.4638L 158.5 87.4638L 158.5 86.4616L 159 86.4616L 159 85.4594L 158.5 85.4594L 158.5 84.4572L 159 84.4572L 159 83.455L 158.5 83.455L 158.5 82.4528L 159 82.4528L 159 81.4506L 158.5 81.4506L 158.5 80.4484L 159 80.4484L 159 79.4462L 158.5 79.4462L 158.5 78.444L 159 78.444L 159 77.4418L 158.5 77.4418L 158.5 76.4396L 159 76.4396L 159 75.4374L 158.5 75.4374L 158.5 74.4352L 159 74.4352L 159 73.433L 158.5 73.433L 158.5 72.4308L 159 72.4308L 159 71.4286L 158.5 71.4286L 158.5 70.4264L 159 70.4264L 159 69.4242L 158.5 69.4242L 158.5 68.422L 159 68.422L 159 67.4198L 158.5 67.4198L 158.5 66.4176L 159 66.4176L 159 65.4154L 158.5 65.4154L 158.5 64.4132L 159 64.4132L 159 63.411L 158.5 63.411L 158.5 62.4088L 159 62.4088L 159 61.4066L 158.5 61.4066L 158.5 60.4044L 159 60.4044L 159 59.4022L 158.5 59.4022L 158.5 58.4001L 159 58.4001L 159 57.3979L 158.5 57.3979L 158.5 56.3957L 159 56.3957L 159 55.3935L 158.5 55.3935L 158.5 54.3913L 159 54.3913L 159 53.3891L 158.5 53.3891L 158.5 52.3869L 159 52.3869L 159 51.3847L 158.5 51.3847L 158.5 50.3825L 159 50.3825L 159 49.3803L 158.5 49.3803L 158.5 48.3781L 159 48.3781L 159 47.3759L 158.5 47.3759L 158.5 46.3737L 159 46.3737L 159 45.3715L 158.5 45.3715L 158.5 44.3693L 159 44.3693L 159 43.3671L 158.5 43.3671L 158.5 42.3649L 159 42.3649L 159 41.3627L 158.5 41.3627L 158.5 40.3605L 159 40.3605L 159 39.3583L 158.5 39.3583L 158.5 38.3561L 159 38.3561L 159 37.3539L 158.5 37.3539L 158.5 36.3517L 159 36.3517L 159 35.3495L 158.5 35.3495L 158.5 34.3473L 159 34.3473L 159 33.3451L 158.5 33.3451L 158.5 32.3429L 159 32.3429L 159 31.3407L 158.5 31.3407L 158.5 30.3385L 159 30.3385L 159 29.3363L 158.5 29.3363L 158.5 28.3341L 159 28.3341L 159 27.3319L 158.5 27.3319L 158.5 26.3297L 159 26.3297L 159 25.3275L 158.5 25.3275L 158.5 24.3253L 159 24.3253L 159 23.3232L 158.5 23.3232L 158.5 22.3209L 159 22.3209L 159 21.3188L 158.5 21.3188L 158.5 20.3166L 159 20.3166L 159 19.3144L 158.5 19.3144L 158.5 18.3122L 159 18.3122L 159 17.31L 158.5 17.31L 158.5 16.3078L 159 16.3078L 159 15.3056L 158.5 15.3056L 158.5 14.3034L 159 14.3034L 159 13.3012L 158.5 13.3012L 158.5 12.8L 158.5 12.2647L 159 12.2645C 159 11.893 158.999 11.5376 158.998 11.1973L 158.498 11.1991C 158.497 10.8261 158.495 10.472 158.49 10.135L 158.99 10.1289C 158.986 9.7527 158.979 9.39713 158.969 9.0602L 158.47 9.07481C 158.459 8.70065 158.444 8.35149 158.424 8.02404L 158.923 7.99343C 158.9 7.61337 158.869 7.26007 158.83 6.92937L 158.333 6.98869C 158.29 6.62332 158.235 6.29116 158.167 5.98483L 158.655 5.87624C 158.573 5.5091 158.472 5.17166 158.347 4.85493L 157.882 5.03837C 157.822 4.88518 157.755 4.7379 157.683 4.59507L 158.128 4.36808L 157.683 4.59507C 157.623 4.47819 157.561 4.36313 157.495 4.24997L 157.928 3.99998C 157.788 3.75742 157.636 3.52306 157.472 3.29771L 157.068 3.59161C 156.913 3.37948 156.749 3.17586 156.574 2.98152L 156.945 2.64695C 156.758 2.43938 156.561 2.24174 156.353 2.05484L 156.018 2.42641C 155.824 2.25143 155.621 2.08649 155.408 1.93237L 155.702 1.52786C 155.477 1.36413 155.243 1.21184 155 1.0718L 154.75 1.50482C 154.637 1.43949 154.522 1.377 154.405 1.31745C 154.262 1.24468 154.115 1.17839 153.962 1.11798L 154.145 0.65284C 153.828 0.527932 153.491 0.426923 153.124 0.345239L 153.015 0.833304C 152.709 0.765147 152.377 0.710444 152.011 0.66679L 152.071 0.170321C 151.74 0.13081 151.387 0.100465 151.007 0.0771588L 150.976 0.576221C 150.648 0.556142 150.299 0.541305 149.925 0.530371L 149.94 0.0305846C 149.603 0.0207385 149.247 0.0140621 148.871 0.00953512L 148.865 0.509499C 148.528 0.505444 148.174 0.503118 147.801 0.501785L 147.803 0.0017881C 147.462 0.000572171 147.107 0.000183088 146.735 5.8586e-05L 146.735 0.500059L 146.2 0.5L 145.702 0.5L 145.702 0L 144.707 0L 144.707 0.5L 143.711 0.5L 143.711 0L 142.716 0L 142.716 0.5L 141.72 0.5L 141.72 0L 140.725 0L 140.725 0.5L 139.729 0.5L 139.729 0L 138.734 0L 138.734 0.5L 137.738 0.5L 137.738 0L 136.743 0L 136.743 0.5L 135.747 0.5L 135.747 0L 134.751 0L 134.751 0.5L 133.756 0.5L 133.756 0L 132.76 0L 132.76 0.5L 131.765 0.5L 131.765 0L 130.769 0L 130.769 0.5L 129.774 0.5L 129.774 0L 128.778 0L 128.778 0.5L 127.783 0.5L 127.783 0L 126.787 0L 126.787 0.5L 125.792 0.5L 125.792 0L 124.796 0L 124.796 0.5L 123.801 0.5L 123.801 0L 122.805 0L 122.805 0.5L 121.81 0.5L 121.81 0L 120.814 0L 120.814 0.5L 119.819 0.5L 119.819 0L 118.823 0L 118.823 0.5L 117.828 0.5L 117.828 0L 116.832 0L 116.832 0.5L 115.837 0.5L 115.837 0L 114.841 0L 114.841 0.5L 113.846 0.5L 113.846 0L 112.85 0L 112.85 0.5L 111.854 0.5L 111.854 0L 110.859 0L 110.859 0.5L 109.863 0.5L 109.863 0L 108.868 0L 108.868 0.5L 107.872 0.5L 107.872 0L 106.877 0L 106.877 0.5L 105.881 0.5L 105.881 0L 104.886 0L 104.886 0.5L 103.89 0.5L 103.89 0L 102.895 0L 102.895 0.5L 101.899 0.5L 101.899 0L 100.904 0L 100.904 0.5L 99.9082 0.5L 99.9082 0L 98.9127 0L 98.9127 0.5L 97.9172 0.5L 97.9172 0L 96.9217 0L 96.9217 0.5L 95.9261 0.5L 95.9261 0L 94.9306 0L 94.9306 0.5L 93.9351 0.5L 93.9351 0L 92.9396 0L 92.9396 0.5L 91.944 0.5L 91.944 0L 90.9485 0L 90.9485 0.5L 89.953 0.5L 89.953 0L 88.9575 0L 88.9575 0.5L 87.962 0.5L 87.962 0L 86.9664 0L 86.9664 0.5L 85.9709 0.5L 85.9709 0L 84.9754 0L 84.9754 0.5L 83.9799 0.5L 83.9799 0L 82.9844 0L 82.9844 0.5L 81.9888 0.5L 81.9888 0L 80.9933 0L 80.9933 0.5L 79.9978 0.5L 79.9978 0L 79.0023 0L 79.0023 0.5L 78.0067 0.5L 78.0067 0L 77.0112 0L 77.0112 0.5L 76.0157 0.5L 76.0157 0L 75.0202 0L 75.0202 0.5L 74.0247 0.5L 74.0247 0L 73.0291 0L 73.0291 0.5L 72.0336 0.5L 72.0336 0L 71.0381 0L 71.0381 0.5L 70.0426 0.5L 70.0426 0L 69.0471 0L 69.0471 0.5L 68.0515 0.5L 68.0515 0L 67.056 0L 67.056 0.5L 66.0605 0.5L 66.0605 0L 65.065 0L 65.065 0.5L 64.0694 0.5L 64.0694 0L 63.0739 0L 63.0739 0.5L 62.0784 0.5L 62.0784 0L 61.0829 0L 61.0829 0.5L 60.0874 0.5L 60.0874 0L 59.0918 0L 59.0918 0.5L 58.0963 0.5L 58.0963 0L 57.1008 0L 57.1008 0.5L 56.1053 0.5L 56.1053 0L 55.1097 0L 55.1097 0.5L 54.1142 0.5L 54.1142 0L 53.1187 0L 53.1187 0.5L 52.1232 0.5L 52.1232 0L 51.1277 0L 51.1277 0.5L 50.1321 0.5L 50.1321 0L 49.1366 0L 49.1366 0.5L 48.1411 0.5L 48.1411 0L 47.1456 0L 47.1456 0.5L 46.1501 0.5L 46.1501 0L 45.1545 0L 45.1545 0.5L 44.159 0.5L 44.159 0L 43.1635 0L 43.1635 0.5L 42.168 0.5L 42.168 0L 41.1724 0L 41.1724 0.5L 40.1769 0.5L 40.1769 0L 39.1814 0L 39.1814 0.5L 38.1859 0.5L 38.1859 0L 37.1904 0L 37.1904 0.5L 36.1948 0.5L 36.1948 0L 35.1993 0L 35.1993 0.5L 34.2038 0.5L 34.2038 0L 33.2083 0L 33.2083 0.5L 32.2127 0.5L 32.2127 0L 31.2172 0L 31.2172 0.5L 30.2217 0.5L 30.2217 0L 29.2262 0L 29.2262 0.5L 28.2307 0.5L 28.2307 0L 27.2351 0L 27.2351 0.5L 26.2396 0.5L 26.2396 0L 25.2441 0L 25.2441 0.5L 24.2486 0.5L 24.2486 0L 23.2531 0L 23.2531 0.5L 22.2575 0.5L 22.2575 0L 21.262 0L 21.262 0.5L 20.2665 0.5L 20.2665 0L 19.271 0L 19.271 0.5L 18.2755 0.5L 18.2755 0L 17.2799 0L 17.2799 0.5L 16.2844 0.5L 16.2844 0L 15.2889 0L 15.2889 0.5L 14.2933 0.5L 14.2933 0L 13.2978 0L 13.2978 0.5L 12.8 0.5L 12.2647 0.500059L 12.2645 5.85879e-05C 11.893 0.000183092 11.5376 0.000572177 11.1973 0.0017881L 11.1991 0.501785C 10.8261 0.503118 10.472 0.505444 10.135 0.509499L 10.1289 0.00953513C 9.7527 0.0140622 9.39713 0.0207385 9.0602 0.0305846L 9.07481 0.530371C 8.70065 0.541306 8.35149 0.556142 8.02404 0.576221L 7.99343 0.0771589C 7.61337 0.100465 7.26007 0.13081 6.92937 0.170322L 6.98869 0.666791C 6.62332 0.710444 6.29116 0.765148 5.98483 0.833305L 5.87624 0.345239C 5.5091 0.426923 5.17166 0.527932 4.85493 0.652841L 5.03837 1.11798C 4.88518 1.17839 4.7379 1.24468 4.59507 1.31745C 4.4782 1.377 4.36313 1.43949 4.24997 1.50482L 3.99998 1.07181C 3.75742 1.21184 3.52306 1.36413 3.29771 1.52786L 3.59161 1.93237C 3.37948 2.08649 3.17586 2.25143 2.98152 2.42641L 2.64695 2.05484C 2.43938 2.24174 2.24174 2.43938 2.05484 2.64695L 2.42641 2.98152C 2.25143 3.17586 2.08649 3.37948 1.93237 3.59161L 1.52786 3.29771C 1.36413 3.52306 1.21184 3.75742 1.07181 3.99998L 1.50482 4.24997C 1.43949 4.36313 1.377 4.4782 1.31745 4.59507C 1.24468 4.7379 1.17839 4.88518 1.11798 5.03837L 0.652841 4.85493C 0.527932 5.17166 0.426922 5.5091 0.345239 5.87624L 0.833305 5.98483C 0.765148 6.29116 0.710444 6.62332 0.666791 6.98869L 0.170322 6.92937C 0.13081 7.26007 0.100465 7.61337 0.0771588 7.99343L 0.576221 8.02404C 0.556142 8.35149 0.541306 8.70065 0.530371 9.07481L 0.0305846 9.0602C 0.0207385 9.39713 0.0140621 9.7527 0.00953512 10.1289L 0.509499 10.135C 0.505444 10.472 0.503118 10.8261 0.501785 11.1991L 0.0017881 11.1973C 0.000572177 11.5376 0.000183092 11.893 5.85879e-05 12.2645L 0.500059 12.2647L 0.5 12.8L 0.5 13.3011L 0 13.3011L 0 14.3033L 0.5 14.3033L 0.5 15.3055L 0 15.3055L 0 16.3077L 0.5 16.3077L 0.5 17.3099L 0 17.3099L 0 18.3121L 0.5 18.3121L 0.5 19.3143L 0 19.3143L 0 20.3165L 0.5 20.3165L 0.5 21.3187L 0 21.3187L 0 22.3209L 0.5 22.3209L 0.5 23.3231L 0 23.3231L 0 24.3253L 0.5 24.3253L 0.5 25.3275L 0 25.3275L 0 26.3297L 0.5 26.3297L 0.5 27.3319L 0 27.3319L 0 28.3341L 0.5 28.3341L 0.5 29.3363L 0 29.3363L 0 30.3385L 0.5 30.3385L 0.5 31.3407L 0 31.3407L 0 32.3428L 0.5 32.3428L 0.5 33.345L 0 33.345L 0 34.3472L 0.5 34.3472L 0.5 35.3494L 0 35.3494L 0 36.3516L 0.5 36.3516L 0.5 37.3538L 0 37.3538L 0 38.356L 0.5 38.356L 0.5 39.3582L 0 39.3582L 0 40.3604L 0.5 40.3604L 0.5 41.3626L 0 41.3626L 0 42.3648L 0.5 42.3648L 0.5 43.367L 0 43.367L 0 44.3692L 0.5 44.3692L 0.5 45.3714L 0 45.3714L 0 46.3736L 0.5 46.3736L 0.5 47.3758L 0 47.3758L 0 48.378L 0.5 48.378L 0.5 49.3802L 0 49.3802L 0 50.3824L 0.5 50.3824L 0.5 51.3846L 0 51.3846L 0 52.3868L 0.5 52.3868L 0.5 53.389L 0 53.389L 0 54.3912L 0.5 54.3912L 0.5 55.3934L 0 55.3934L 0 56.3956L 0.5 56.3956L 0.5 57.3978L 0 57.3978L 0 58.4L 0.5 58.4L 0.5 59.4022L 0 59.4022L 0 60.4044L 0.5 60.4044L 0.5 61.4066L 0 61.4066L 0 62.4088L 0.5 62.4088L 0.5 63.411L 0 63.411L 0 64.4132L 0.5 64.4132L 0.5 65.4154L 0 65.4154L 0 66.4176L 0.5 66.4176L 0.5 67.4198L 0 67.4198L 0 68.422L 0.5 68.422L 0.5 69.4241L 0 69.4241L 0 70.4264L 0.5 70.4264L 0.5 71.4285L 0 71.4285L 0 72.4307L 0.5 72.4307L 0.5 73.4329L 0 73.4329L 0 74.4351L 0.5 74.4351L 0.5 75.4373L 0 75.4373L 0 76.4395L 0.5 76.4395L 0.5 77.4417L 0 77.4417L 0 78.4439L 0.5 78.4439L 0.5 79.4461L 0 79.4461L 0 80.4483L 0.5 80.4483L 0.5 81.4505L 0 81.4505L 0 82.4527L 0.5 82.4527L 0.5 83.4549L 0 83.4549L 0 84.4571L 0.5 84.4571L 0.5 85.4593L 0 85.4593L 0 86.4615L 0.5 86.4615L 0.5 87.4637L 0 87.4637L 0 88.4659L 0.5 88.4659L 0.5 89.4681L 0 89.4681L 0 90.4703L 0.5 90.4703L 0.5 91.4725L 0 91.4725L 0 92.4747L 0.5 92.4747L 0.5 93.4769L 0 93.4769L 0 94.4791L 0.5 94.4791L 0.5 95.4813L 0 95.4813L 0 96.4835L 0.5 96.4835L 0.5 97.4857L 0 97.4857L 0 98.4879L 0.5 98.4879L 0.5 99.4901L 0 99.4901L 0 100.492L 0.5 100.492L 0.5 101.494L 0 101.494L 0 102.497L 0.5 102.497L 0.5 103.499L 0 103.499L 0 104.501L 0.5 104.501L 0.5 105.503L 0 105.503L 0 106.505L 0.5 106.505L 0.5 107.508L 0 107.508L 0 108.51L 0.5 108.51L 0.5 109.512L 0 109.512L 0 110.514L 0.5 110.514L 0.5 111.516L 0 111.516L 0 112.519L 0.5 112.519L 0.5 113.521L 0 113.521L 0 114.523L 0.5 114.523L 0.5 115.525L 0 115.525L 0 116.527L 0.5 116.527L 0.5 117.53L 0 117.53L 0 118.532L 0.5 118.532L 0.5 119.534L 0 119.534L 0 120.536L 0.5 120.536L 0.5 121.538L 0 121.538L 0 122.541L 0.5 122.541L 0.5 123.543L 0 123.543L 0 124.545L 0.5 124.545L 0.5 125.547L 0 125.547L 0 126.549L 0.5 126.549L 0.5 127.552L 0 127.552L 0 128.554L 0.5 128.554L 0.5 129.556L 0 129.556L 0 130.558L 0.5 130.558L 0.5 131.56L 0 131.56L 0 132.563L 0.5 132.563L 0.5 133.565L 0 133.565L 0 134.567L 0.5 134.567L 0.5 135.569L 0 135.569L 0 136.571L 0.5 136.571L 0.5 137.574L 0 137.574L 0 138.576L 0.5 138.576L 0.5 139.578L 0 139.578L 0 140.58L 0.5 140.58L 0.5 141.582L 0 141.582L 0 142.585L 0.5 142.585L 0.5 143.587L 0 143.587L 0 144.589L 0.5 144.589L 0.5 145.591L 0 145.591L 0 146.593L 0.5 146.593L 0.5 147.596L 0 147.596L 0 148.598L 0.5 148.598L 0.5 149.6L 0 149.6L 0 150.602L 0.5 150.602L 0.5 151.604L 0 151.604L 0 152.607L 0.5 152.607L 0.5 153.609L 0 153.609L 0 154.611L 0.5 154.611L 0.5 155.613L 0 155.613L 0 156.615L 0.5 156.615L 0.5 157.618L 0 157.618L 0 158.62L 0.5 158.62L 0.5 159.622L 0 159.622L 0 160.624L 0.5 160.624L 0.5 161.626L 0 161.626L 0 162.629L 0.5 162.629L 0.5 163.631L 0 163.631L 0 164.633L 0.5 164.633L 0.5 165.635L 0 165.635L 0 166.637L 0.5 166.637L 0.5 167.639L 0 167.639L 0 168.642L 0.5 168.642L 0.5 169.644L 0 169.644L 0 170.646L 0.5 170.646L 0.5 171.648L 0 171.648L 0 172.65L 0.5 172.65L 0.5 173.653L 0 173.653L 0 174.655L 0.5 174.655L 0.5 175.657L 0 175.657L 0 176.659L 0.5 176.659L 0.5 177.661L 0 177.661L 0 178.664L 0.5 178.664L 0.5 179.666L 0 179.666L 0 180.668L 0.5 180.668L 0.5 181.67L 0 181.67L 0 182.672L 0.5 182.672L 0.5 183.675L 0 183.675L 0 184.677L 0.5 184.677L 0.5 185.679L 0 185.679L 0 186.681L 0.5 186.681L 0.5 187.683L 0 187.683L 0 188.686L 0.5 188.686L 0.5 189.688L 0 189.688L 0 190.69L 0.5 190.69L 0.5 191.692L 0 191.692L 0 192.694L 0.5 192.694L 0.5 193.697L 0 193.697L 0 194.699L 0.5 194.699L 0.5 195.2L 0.500059 195.735L 5.8586e-05 195.735Z" stroke-miterlimit="8" stroke-dasharray="1 1" transform="translate(639 33) scale(3)" stroke="#7B7B7B"/>
</g>
<g id="Rectangle_4">
<path fill-rule="evenodd" clip-rule="evenodd" d="M 0 10.5C 0 8.17553 0 7.01329 0.23975 6.05616C 0.956995 3.19276 3.19276 0.956995 6.05616 0.23975C 7.01329 0 8.17553 0 10.5 0L 129.5 0C 131.824 0 132.987 0 133.944 0.23975C 136.807 0.956995 139.043 3.19276 139.76 6.05616C 140 7.01329 140 8.17553 140 10.5C 140 12.8245 140 13.9867 139.76 14.9438C 139.043 17.8072 136.807 20.043 133.944 20.7602C 132.987 21 131.824 21 129.5 21L 10.5 21C 8.17553 21 7.01329 21 6.05616 20.7602C 3.19276 20.043 0.956995 17.8072 0.23975 14.9438C 0 13.9867 0 12.8245 0 10.5Z" transform="translate(669 3) scale(3)" fill="white"/>
</g>
<g id="Rule application">
<path d="M 2.94996 15L 2.94996 11.145L 5.16996 11.145L 8.03496 15L 10.24 15L 7.08996 10.8C 8.48496 10.395 9.39996 9.21 9.39996 7.77C 9.39996 6.09 8.52996 4.5 5.25996 4.5L 1.13496 4.5L 1.13496 15L 2.94996 15ZM 5.21496 6.21C 6.98496 6.21 7.50996 6.855 7.50996 7.77C 7.50996 8.805 6.68496 9.435 5.30496 9.435L 2.94996 9.435L 2.94996 6.21L 5.21496 6.21ZM 18.1992 7.155L 16.4892 7.155L 16.4892 12.195C 16.0542 13.065 15.3792 13.545 14.4792 13.545C 13.1292 13.545 12.7842 12.615 12.7842 11.475L 12.7842 7.155L 11.0742 7.155L 11.0742 11.64C 11.0742 14.04 12.1542 15.135 14.3142 15.135C 15.2892 15.135 16.0092 14.715 16.4892 14.175L 16.4892 15L 18.1992 15L 18.1992 7.155ZM 19.7911 15L 21.5011 15L 21.5011 4.05L 19.7911 4.05L 19.7911 15ZM 29.027 12.51C 28.562 13.14 27.782 13.545 26.942 13.545C 25.652 13.545 24.647 12.915 24.512 11.685L 30.302 11.685C 30.362 11.22 30.392 10.845 30.392 10.59C 30.392 8.43 28.832 7.02 26.732 7.02C 24.122 7.02 22.727 8.805 22.727 11.085C 22.727 13.545 24.407 15.135 26.912 15.135C 28.187 15.135 29.282 14.61 30.077 13.545L 29.027 12.51ZM 26.657 8.565C 27.752 8.565 28.487 9.12 28.622 10.2L 24.527 10.2C 24.752 9.195 25.502 8.565 26.657 8.565ZM 36.012 9.435C 36.762 8.865 37.392 8.61 38.247 8.61C 39.507 8.61 39.942 9.24 39.927 10.365C 39.567 10.245 38.877 10.155 38.322 10.155C 36.252 10.155 34.677 10.89 34.677 12.63C 34.677 14.13 35.802 15.09 37.512 15.09C 38.667 15.09 39.462 14.655 39.927 14.145L 39.927 15L 41.637 15L 41.637 10.23C 41.637 8.19 40.497 7.02 38.442 7.02C 37.167 7.02 35.907 7.455 35.172 8.175L 36.012 9.435ZM 37.887 13.605C 37.017 13.605 36.447 13.23 36.447 12.615C 36.447 11.835 37.272 11.58 38.502 11.58C 39.057 11.58 39.612 11.685 39.927 11.79L 39.927 12.54C 39.582 13.065 38.922 13.605 37.887 13.605ZM 43.1846 18L 44.8946 18L 44.8946 14.49C 45.2396 14.91 46.0646 15.135 46.9346 15.135C 49.2746 15.135 50.8346 13.35 50.8346 10.965C 50.8346 8.655 49.3946 7.02 47.0546 7.02C 46.2746 7.02 45.3896 7.29 44.8946 7.905L 44.8946 7.2L 43.1846 7.2L 43.1846 18ZM 46.8746 8.61C 48.2246 8.61 49.0646 9.525 49.0646 11.1C 49.0646 12.555 48.1346 13.545 46.7396 13.545C 45.9746 13.545 45.2696 13.215 44.8946 12.585L 44.8946 9.885C 45.2096 9.21 45.8846 8.61 46.8746 8.61ZM 52.0616 18L 53.7716 18L 53.7716 14.49C 54.1166 14.91 54.9416 15.135 55.8116 15.135C 58.1516 15.135 59.7116 13.35 59.7116 10.965C 59.7116 8.655 58.2716 7.02 55.9316 7.02C 55.1516 7.02 54.2666 7.29 53.7716 7.905L 53.7716 7.2L 52.0616 7.2L 52.0616 18ZM 55.7516 8.61C 57.1016 8.61 57.9416 9.525 57.9416 11.1C 57.9416 12.555 57.0116 13.545 55.6166 13.545C 54.8516 13.545 54.1466 13.215 53.7716 12.585L 53.7716 9.885C 54.0866 9.21 54.7616 8.61 55.7516 8.61ZM 60.9386 15L 62.6486 15L 62.6486 4.05L 60.9386 4.05L 60.9386 15ZM 64.3845 15L 66.0945 15L 66.0945 7.2L 64.3845 7.2L 64.3845 15ZM 64.2345 4.965C 64.2345 5.505 64.6395 5.895 65.2395 5.895C 65.7945 5.895 66.2295 5.505 66.2295 4.965C 66.2295 4.455 65.7945 4.065 65.2395 4.065C 64.6695 4.065 64.2345 4.455 64.2345 4.965ZM 73.7933 12.435C 73.3583 13.095 72.7133 13.545 71.8283 13.545C 70.2533 13.545 69.2333 12.495 69.2333 11.085C 69.2333 9.615 70.2383 8.61 71.6483 8.61C 72.5333 8.61 73.1183 8.925 73.6433 9.63L 74.9183 8.79C 74.4083 7.755 73.1783 7.02 71.5733 7.02C 69.1133 7.02 67.4633 8.775 67.4633 11.085C 67.4633 13.545 69.1583 15.135 71.6633 15.135C 73.0133 15.135 74.3633 14.475 75.0083 13.215L 73.7933 12.435ZM 76.7346 9.435C 77.4846 8.865 78.1146 8.61 78.9696 8.61C 80.2296 8.61 80.6646 9.24 80.6496 10.365C 80.2896 10.245 79.5996 10.155 79.0446 10.155C 76.9746 10.155 75.3996 10.89 75.3996 12.63C 75.3996 14.13 76.5246 15.09 78.2346 15.09C 79.3896 15.09 80.1846 14.655 80.6496 14.145L 80.6496 15L 82.3596 15L 82.3596 10.23C 82.3596 8.19 81.2196 7.02 79.1646 7.02C 77.8896 7.02 76.6296 7.455 75.8946 8.175L 76.7346 9.435ZM 78.6096 13.605C 77.7396 13.605 77.1696 13.23 77.1696 12.615C 77.1696 11.835 77.9946 11.58 79.2246 11.58C 79.7796 11.58 80.3346 11.685 80.6496 11.79L 80.6496 12.54C 80.3046 13.065 79.6446 13.605 78.6096 13.605ZM 83.1573 8.79L 84.5073 8.79L 84.5073 12.285C 84.5073 14.145 85.4823 15.09 86.9673 15.09C 88.0323 15.09 88.9323 14.535 89.3523 13.8L 88.3323 12.84C 88.0623 13.185 87.7023 13.5 87.2223 13.5C 86.5173 13.5 86.2173 13.065 86.2173 11.805L 86.2173 8.79L 88.7373 8.79L 88.7373 7.2L 86.2173 7.2L 86.2173 5.595L 84.5073 5.595L 84.5073 7.2L 83.1573 7.2L 83.1573 8.79ZM 90.2536 15L 91.9636 15L 91.9636 7.2L 90.2536 7.2L 90.2536 15ZM 90.1036 4.965C 90.1036 5.505 90.5086 5.895 91.1086 5.895C 91.6636 5.895 92.0986 5.505 92.0986 4.965C 92.0986 4.455 91.6636 4.065 91.1086 4.065C 90.5386 4.065 90.1036 4.455 90.1036 4.965ZM 93.3325 11.085C 93.3325 13.425 95.0725 15.135 97.5025 15.135C 99.9625 15.135 101.687 13.425 101.687 11.085C 101.687 8.73 99.9625 7.02 97.5025 7.02C 95.0275 7.02 93.3325 8.73 93.3325 11.085ZM 95.1025 11.085C 95.1025 9.555 96.1375 8.61 97.5025 8.61C 98.8525 8.61 99.9175 9.57 99.9175 11.085C 99.9175 12.585 98.9275 13.545 97.5025 13.545C 96.0775 13.545 95.1025 12.495 95.1025 11.085ZM 102.921 15L 104.631 15L 104.631 9.945C 104.976 9.135 105.696 8.625 106.536 8.625C 107.826 8.625 108.456 9.225 108.456 10.725L 108.456 15L 110.166 15L 110.166 10.59C 110.166 8.1 109.056 7.035 107.031 7.035C 105.951 7.035 105.246 7.305 104.631 7.905L 104.631 7.2L 102.921 7.2L 102.921 15Z" transform="translate(714 3) scale(3)" fill="#3894F3"/>
</g>
<g id="Line 2.1_2">
<path d="M 1.5 0L 1.5 -0.5L 0.5 -0.5L 0.5 0L 1.5 0ZM 0.646447 30.6736C 0.841709 30.8688 1.15829 30.8688 1.35355 30.6736L 4.53553 27.4916C 4.7308 27.2963 4.7308 26.9797 4.53553 26.7845C 4.34027 26.5892 4.02369 26.5892 3.82843 26.7845L 1 29.6129L -1.82843 26.7845C -2.02369 26.5892 -2.34027 26.5892 -2.53553 26.7845C -2.7308 26.9797 -2.7308 27.2963 -2.53553 27.4916L 0.646447 30.6736ZM 0.5 0L 0.5 30.32L 1.5 30.32L 1.5 0L 0.5 0Z" transform="translate(871.819 216.32) scale(3)" fill="black"/>
</g>
<g id="Line 2.2_2">
<path d="M 1.5 0L 1.5 -0.5L 0.5 -0.5L 0.5 0L 1.5 0ZM 0.646447 30.6736C 0.841709 30.8688 1.15829 30.8688 1.35355 30.6736L 4.53553 27.4916C 4.7308 27.2963 4.7308 26.9797 4.53553 26.7845C 4.34027 26.5892 4.02369 26.5892 3.82843 26.7845L 1 29.6129L -1.82843 26.7845C -2.02369 26.5892 -2.34027 26.5892 -2.53553 26.7845C -2.7308 26.9797 -2.7308 27.2963 -2.53553 27.4916L 0.646447 30.6736ZM 0.5 0L 0.5 30.32L 1.5 30.32L 1.5 0L 0.5 0Z" transform="translate(873 468) scale(3)" fill="black"/>
</g>
<g id="Rectangle 3.1_2">
<path fill-rule="evenodd" clip-rule="evenodd" d="M 2.82843 2.82843L 20.6569 0L 17.8284 17.8284L 0 20.6569L 2.82843 2.82843Z" transform="matrix(2.12132 2.12132 -2.12132 2.12132 874.819 132)" fill="#3894F3"/>
</g>
<g id="Rectangle 3.2_2">
<path fill-rule="evenodd" clip-rule="evenodd" d="M 2.82843 2.82843L 20.6569 0L 17.8284 17.8284L 0 20.6569L 2.82843 2.82843Z" transform="matrix(2.12132 2.12132 -2.12132 2.12132 874.819 381)" fill="#3894F3"/>
</g>
<g id="Request">
<path d="M 0.835184 13L 2.01818 13L 3.78618 3.9L 2.60318 3.9L 0.835184 13ZM 3.86754 13L 4.92054 13L 5.73954 8.528C 6.20754 7.735 7.14354 7.124 8.14454 7.124C 8.97654 7.124 9.44454 7.527 9.44454 8.398C 9.44454 8.879 9.36654 9.191 9.32754 9.451L 8.58654 13L 9.62654 13L 10.3805 9.36C 10.4585 8.97 10.5235 8.489 10.5235 8.138C 10.5235 6.838 9.74354 6.097 8.40454 6.097C 7.44254 6.097 6.59754 6.513 6.01254 7.085L 6.16854 6.24L 5.11554 6.24L 3.86754 13ZM 15.1311 11.154C 15.1311 11.791 14.4031 12.09 13.7921 12.09C 12.7651 12.09 12.0631 11.661 11.6731 10.907L 10.8281 11.505C 11.2831 12.454 12.2841 13.117 13.7141 13.117C 14.8321 13.117 16.2361 12.532 16.2361 11.102C 16.2361 8.814 13.1291 9.282 13.1291 8.021C 13.1291 7.384 13.8571 7.111 14.5721 7.111C 15.3001 7.111 15.9371 7.462 16.2621 7.904L 17.0031 7.189C 16.5741 6.604 15.8331 6.084 14.4681 6.084C 13.1941 6.084 12.0241 6.747 12.0241 8.06C 12.0241 10.192 15.1311 9.698 15.1311 11.154ZM 17.2647 7.28L 18.4737 7.28L 17.7977 10.543C 17.7197 10.92 17.6547 11.414 17.6547 11.674C 17.6677 12.545 18.3047 13.091 19.2927 13.091C 20.0857 13.091 20.8527 12.714 21.2817 12.181L 20.7487 11.492C 20.5017 11.752 20.1117 12.051 19.5527 12.051C 19.0977 12.051 18.7597 11.843 18.7467 11.271C 18.7467 11.05 18.8247 10.582 18.8897 10.257L 19.5137 7.28L 21.7237 7.28L 21.9187 6.24L 19.7347 6.24L 20.0597 4.771L 19.0327 4.771L 18.6947 6.24L 17.4467 6.24L 17.2647 7.28ZM 26.5894 13L 27.5774 13L 28.9034 6.24L 27.9024 6.24L 27.8244 6.656C 27.4994 6.344 26.9144 6.084 25.9784 6.084C 24.1194 6.084 22.0134 7.709 22.0134 10.4C 22.0134 11.973 22.9494 13.104 24.6004 13.104C 25.7054 13.104 26.4854 12.428 26.7844 11.999L 26.5894 13ZM 24.8734 12.064C 23.8464 12.064 23.1184 11.479 23.1184 10.27C 23.1184 8.372 24.5484 7.111 25.9914 7.111C 26.8234 7.111 27.3434 7.384 27.6034 7.761L 26.9664 10.712C 26.6024 11.31 25.9134 12.064 24.8734 12.064ZM 29.2962 13L 30.3492 13L 31.1682 8.528C 31.6362 7.735 32.5722 7.124 33.5732 7.124C 34.4052 7.124 34.8732 7.527 34.8732 8.398C 34.8732 8.879 34.7952 9.191 34.7562 9.451L 34.0152 13L 35.0552 13L 35.8092 9.36C 35.8872 8.97 35.9522 8.489 35.9522 8.138C 35.9522 6.838 35.1722 6.097 33.8332 6.097C 32.8712 6.097 32.0262 6.513 31.4412 7.085L 31.5972 6.24L 30.5442 6.24L 29.2962 13ZM 41.9638 11.232C 41.2878 11.869 40.7678 12.09 39.9358 12.09C 38.7658 12.09 37.9338 11.388 37.9338 10.166C 37.9338 8.424 39.1818 7.111 40.7288 7.111C 41.5218 7.111 42.0158 7.41 42.3928 8.021L 43.2378 7.462C 42.8348 6.643 42.0418 6.084 40.8458 6.084C 38.5708 6.084 36.8288 7.891 36.8288 10.283C 36.8288 11.999 38.1158 13.117 39.8188 13.117C 40.8978 13.117 41.7428 12.844 42.6398 11.843L 41.9638 11.232ZM 48.4502 11.167C 47.9562 11.752 47.2282 12.09 46.3962 12.09C 45.2262 12.09 44.4592 11.388 44.4592 10.166L 44.4592 9.971C 45.0052 10.062 45.5252 10.101 46.0062 10.101C 48.2422 10.101 49.6202 9.165 49.6202 7.813C 49.6202 6.682 48.7882 6.084 47.3712 6.084C 45.2652 6.084 43.3542 7.891 43.3542 10.283C 43.3542 11.999 44.4982 13.117 46.1882 13.117C 47.2022 13.117 48.4112 12.74 49.0742 11.804L 48.4502 11.167ZM 47.2542 7.111C 48.1122 7.111 48.5152 7.462 48.5152 7.93C 48.5152 8.541 47.6572 9.165 45.8502 9.165C 45.4862 9.165 45.0832 9.139 44.6412 9.087C 45.0572 7.904 46.1232 7.111 47.2542 7.111ZM 59.2802 11.232C 58.6042 11.869 58.0842 12.09 57.2522 12.09C 56.0822 12.09 55.2502 11.388 55.2502 10.166C 55.2502 8.424 56.4982 7.111 58.0452 7.111C 58.8382 7.111 59.3322 7.41 59.7092 8.021L 60.5542 7.462C 60.1512 6.643 59.3582 6.084 58.1622 6.084C 55.8872 6.084 54.1452 7.891 54.1452 10.283C 54.1452 11.999 55.4322 13.117 57.1352 13.117C 58.2142 13.117 59.0592 12.844 59.9562 11.843L 59.2802 11.232ZM 65.5005 13L 66.4885 13L 67.8145 6.24L 66.8135 6.24L 66.7355 6.656C 66.4105 6.344 65.8255 6.084 64.8895 6.084C 63.0305 6.084 60.9245 7.709 60.9245 10.4C 60.9245 11.973 61.8605 13.104 63.5115 13.104C 64.6165 13.104 65.3965 12.428 65.6955 11.999L 65.5005 13ZM 63.7845 12.064C 62.7575 12.064 62.0295 11.479 62.0295 10.27C 62.0295 8.372 63.4595 7.111 64.9025 7.111C 65.7345 7.111 66.2545 7.384 66.5145 7.761L 65.8775 10.712C 65.5135 11.31 64.8245 12.064 63.7845 12.064ZM 73.5244 11.232C 72.8484 11.869 72.3284 12.09 71.4964 12.09C 70.3264 12.09 69.4944 11.388 69.4944 10.166C 69.4944 8.424 70.7424 7.111 72.2894 7.111C 73.0824 7.111 73.5764 7.41 73.9534 8.021L 74.7984 7.462C 74.3954 6.643 73.6024 6.084 72.4064 6.084C 70.1314 6.084 68.3894 7.891 68.3894 10.283C 68.3894 11.999 69.6764 13.117 71.3794 13.117C 72.4584 13.117 73.3034 12.844 74.2004 11.843L 73.5244 11.232ZM 74.9867 13L 76.0397 13L 76.8587 8.528C 77.3267 7.735 78.2627 7.124 79.2637 7.124C 80.0957 7.124 80.5637 7.527 80.5637 8.398C 80.5637 8.879 80.4987 9.165 80.4467 9.451L 79.7187 13L 80.7587 13L 81.4997 9.36C 81.5777 8.97 81.6427 8.489 81.6427 8.138C 81.6427 6.838 80.8627 6.097 79.5237 6.097C 78.5617 6.097 77.7167 6.513 77.1317 7.085L 77.7947 3.51L 76.7417 3.51L 74.9867 13ZM 87.6153 11.167C 87.1213 11.752 86.3933 12.09 85.5613 12.09C 84.3913 12.09 83.6243 11.388 83.6243 10.166L 83.6243 9.971C 84.1703 10.062 84.6903 10.101 85.1713 10.101C 87.4073 10.101 88.7853 9.165 88.7853 7.813C 88.7853 6.682 87.9533 6.084 86.5363 6.084C 84.4303 6.084 82.5193 7.891 82.5193 10.283C 82.5193 11.999 83.6633 13.117 85.3533 13.117C 86.3673 13.117 87.5763 12.74 88.2393 11.804L 87.6153 11.167ZM 86.4193 7.111C 87.2773 7.111 87.6803 7.462 87.6803 7.93C 87.6803 8.541 86.8223 9.165 85.0153 9.165C 84.6513 9.165 84.2483 9.139 83.8063 9.087C 84.2223 7.904 85.2883 7.111 86.4193 7.111Z" transform="translate(744 75) scale(3)" fill="black"/>
</g>
<g id="Request_2">
<path d="M 8.22168 10.842C 7.53268 11.518 6.63568 12.012 5.34868 12.012C 3.43768 12.012 2.28068 10.751 2.28068 9.061C 2.28068 6.734 3.98368 4.888 6.47968 4.888C 7.67568 4.888 8.42968 5.252 9.00168 5.993L 9.87268 5.291C 9.26168 4.303 8.09168 3.783 6.67468 3.783C 3.26868 3.783 1.04568 6.292 1.04568 9.256C 1.04568 11.505 2.67068 13.117 5.24468 13.117C 6.88268 13.117 8.09168 12.506 8.87168 11.661L 8.22168 10.842ZM 14.4029 13L 15.3909 13L 16.7169 6.24L 15.7159 6.24L 15.6379 6.656C 15.3129 6.344 14.7279 6.084 13.7919 6.084C 11.9329 6.084 9.82688 7.709 9.82688 10.4C 9.82688 11.973 10.7629 13.104 12.4139 13.104C 13.5189 13.104 14.2989 12.428 14.5979 11.999L 14.4029 13ZM 12.6869 12.064C 11.6599 12.064 10.9319 11.479 10.9319 10.27C 10.9319 8.372 12.3619 7.111 13.8049 7.111C 14.6369 7.111 15.1569 7.384 15.4169 7.761L 14.7799 10.712C 14.4159 11.31 13.7269 12.064 12.6869 12.064ZM 22.4267 11.232C 21.7507 11.869 21.2307 12.09 20.3987 12.09C 19.2287 12.09 18.3967 11.388 18.3967 10.166C 18.3967 8.424 19.6447 7.111 21.1917 7.111C 21.9847 7.111 22.4787 7.41 22.8557 8.021L 23.7007 7.462C 23.2977 6.643 22.5047 6.084 21.3087 6.084C 19.0337 6.084 17.2917 7.891 17.2917 10.283C 17.2917 11.999 18.5787 13.117 20.2817 13.117C 21.3607 13.117 22.2057 12.844 23.1027 11.843L 22.4267 11.232ZM 23.889 13L 24.942 13L 25.761 8.528C 26.229 7.735 27.165 7.124 28.166 7.124C 28.998 7.124 29.466 7.527 29.466 8.398C 29.466 8.879 29.401 9.165 29.349 9.451L 28.621 13L 29.661 13L 30.402 9.36C 30.48 8.97 30.545 8.489 30.545 8.138C 30.545 6.838 29.765 6.097 28.426 6.097C 27.464 6.097 26.619 6.513 26.034 7.085L 26.697 3.51L 25.644 3.51L 23.889 13ZM 36.5176 11.167C 36.0236 11.752 35.2956 12.09 34.4636 12.09C 33.2936 12.09 32.5266 11.388 32.5266 10.166L 32.5266 9.971C 33.0726 10.062 33.5926 10.101 34.0736 10.101C 36.3096 10.101 37.6876 9.165 37.6876 7.813C 37.6876 6.682 36.8556 6.084 35.4386 6.084C 33.3326 6.084 31.4216 7.891 31.4216 10.283C 31.4216 11.999 32.5656 13.117 34.2556 13.117C 35.2696 13.117 36.4786 12.74 37.1416 11.804L 36.5176 11.167ZM 35.3216 7.111C 36.1796 7.111 36.5826 7.462 36.5826 7.93C 36.5826 8.541 35.7246 9.165 33.9176 9.165C 33.5536 9.165 33.1506 9.139 32.7086 9.087C 33.1246 7.904 34.1906 7.111 35.3216 7.111ZM 45.9436 11.154C 45.9436 11.791 45.2156 12.09 44.6046 12.09C 43.5776 12.09 42.8756 11.661 42.4856 10.907L 41.6406 11.505C 42.0956 12.454 43.0966 13.117 44.5266 13.117C 45.6446 13.117 47.0486 12.532 47.0486 11.102C 47.0486 8.814 43.9416 9.282 43.9416 8.021C 43.9416 7.384 44.6696 7.111 45.3846 7.111C 46.1126 7.111 46.7496 7.462 47.0746 7.904L 47.8156 7.189C 47.3866 6.604 46.6456 6.084 45.2806 6.084C 44.0066 6.084 42.8366 6.747 42.8366 8.06C 42.8366 10.192 45.9436 9.698 45.9436 11.154ZM 48.0772 7.28L 49.2862 7.28L 48.6102 10.543C 48.5322 10.92 48.4672 11.414 48.4672 11.674C 48.4802 12.545 49.1172 13.091 50.1052 13.091C 50.8982 13.091 51.6652 12.714 52.0942 12.181L 51.5612 11.492C 51.3142 11.752 50.9242 12.051 50.3652 12.051C 49.9102 12.051 49.5722 11.843 49.5592 11.271C 49.5592 11.05 49.6372 10.582 49.7022 10.257L 50.3262 7.28L 52.5362 7.28L 52.7312 6.24L 50.5472 6.24L 50.8722 4.771L 49.8452 4.771L 49.5072 6.24L 48.2592 6.24L 48.0772 7.28ZM 52.572 10.387C 52.572 11.96 53.755 13.117 55.588 13.117C 57.694 13.117 59.54 11.44 59.54 8.853C 59.54 7.293 58.435 6.084 56.641 6.084C 54.548 6.084 52.572 7.774 52.572 10.387ZM 53.677 10.127C 53.677 8.346 55.172 7.111 56.498 7.111C 57.59 7.111 58.435 7.787 58.435 9.035C 58.435 10.894 57.057 12.09 55.692 12.09C 54.418 12.09 53.677 11.284 53.677 10.127ZM 60.0834 13L 61.1364 13L 62.0464 8.294C 62.3324 7.592 62.9174 7.124 63.4764 7.124C 63.8664 7.124 64.0614 7.254 64.1784 7.462L 64.9714 6.708C 64.7504 6.331 64.3864 6.097 63.7754 6.097C 63.2814 6.097 62.6184 6.37 62.3194 6.851L 62.4364 6.24L 61.3834 6.24L 60.0834 13ZM 69.6778 11.167C 69.1838 11.752 68.4558 12.09 67.6238 12.09C 66.4538 12.09 65.6868 11.388 65.6868 10.166L 65.6868 9.971C 66.2328 10.062 66.7528 10.101 67.2338 10.101C 69.4698 10.101 70.8478 9.165 70.8478 7.813C 70.8478 6.682 70.0158 6.084 68.5988 6.084C 66.4928 6.084 64.5818 7.891 64.5818 10.283C 64.5818 11.999 65.7258 13.117 67.4158 13.117C 68.4298 13.117 69.6388 12.74 70.3018 11.804L 69.6778 11.167ZM 68.4818 7.111C 69.3398 7.111 69.7428 7.462 69.7428 7.93C 69.7428 8.541 68.8848 9.165 67.0778 9.165C 66.7138 9.165 66.3108 9.139 65.8688 9.087C 66.2848 7.904 67.3508 7.111 68.4818 7.111Z" transform="translate(765 330) scale(3)" fill="black"/>
</g>
<g id="Request_3">
<path d="M 1.95275 13L 2.60275 9.646L 5.00775 9.646C 8.23175 9.646 9.32375 7.943 9.32375 6.279C 9.32375 4.823 8.23175 3.9 6.07375 3.9L 2.53775 3.9L 0.769754 13L 1.95275 13ZM 6.00875 5.005C 7.49075 5.005 8.08875 5.616 8.08875 6.435C 8.08875 7.813 7.00975 8.541 5.15075 8.541L 2.81075 8.541L 3.51275 5.005L 6.00875 5.005ZM 14.5899 11.167C 14.0959 11.752 13.3679 12.09 12.5359 12.09C 11.3659 12.09 10.5989 11.388 10.5989 10.166L 10.5989 9.971C 11.1449 10.062 11.6649 10.101 12.1459 10.101C 14.3819 10.101 15.7599 9.165 15.7599 7.813C 15.7599 6.682 14.9279 6.084 13.5109 6.084C 11.4049 6.084 9.49387 7.891 9.49387 10.283C 9.49387 11.999 10.6379 13.117 12.3279 13.117C 13.3419 13.117 14.5509 12.74 15.2139 11.804L 14.5899 11.167ZM 13.3939 7.111C 14.2519 7.111 14.6549 7.462 14.6549 7.93C 14.6549 8.541 13.7969 9.165 11.9899 9.165C 11.6259 9.165 11.2229 9.139 10.7809 9.087C 11.1969 7.904 12.2629 7.111 13.3939 7.111ZM 16.2054 13L 17.2584 13L 18.1684 8.294C 18.4544 7.592 19.0394 7.124 19.5984 7.124C 19.9884 7.124 20.1834 7.254 20.3004 7.462L 21.0934 6.708C 20.8724 6.331 20.5084 6.097 19.8974 6.097C 19.4034 6.097 18.7404 6.37 18.4414 6.851L 18.5584 6.24L 17.5054 6.24L 16.2054 13ZM 21.0091 7.28L 22.2051 7.28L 21.2301 13L 22.2831 13L 23.2451 7.28L 25.2211 7.28L 25.4291 6.24L 23.4401 6.24L 23.4791 6.019C 23.6871 4.836 24.2201 4.42 24.9351 4.42C 25.3511 4.42 25.6241 4.602 25.7671 4.862L 26.4691 4.199C 26.2481 3.731 25.6891 3.406 24.9871 3.406C 23.8951 3.406 22.8031 4.017 22.4521 5.928L 22.3871 6.24L 21.2041 6.24L 21.0091 7.28ZM 25.0964 10.387C 25.0964 11.96 26.2794 13.117 28.1124 13.117C 30.2184 13.117 32.0644 11.44 32.0644 8.853C 32.0644 7.293 30.9594 6.084 29.1654 6.084C 27.0724 6.084 25.0964 7.774 25.0964 10.387ZM 26.2014 10.127C 26.2014 8.346 27.6964 7.111 29.0224 7.111C 30.1144 7.111 30.9594 7.787 30.9594 9.035C 30.9594 10.894 29.5814 12.09 28.2164 12.09C 26.9424 12.09 26.2014 11.284 26.2014 10.127ZM 32.6078 13L 33.6608 13L 34.5708 8.294C 34.8568 7.592 35.4418 7.124 36.0008 7.124C 36.3908 7.124 36.5858 7.254 36.7028 7.462L 37.4958 6.708C 37.2748 6.331 36.9108 6.097 36.2998 6.097C 35.8058 6.097 35.1428 6.37 34.8438 6.851L 34.9608 6.24L 33.9078 6.24L 32.6078 13ZM 47.3825 8.515C 47.4345 8.255 47.4605 8.008 47.4605 7.8C 47.4345 6.591 46.5895 6.097 45.5105 6.097C 44.5615 6.097 43.8335 6.461 43.2225 7.15C 43.0015 6.474 42.3775 6.097 41.4805 6.097C 40.6225 6.097 39.8555 6.552 39.3745 7.111L 39.5435 6.24L 38.4905 6.24L 37.2035 13L 38.2565 13L 39.1275 8.489C 39.4525 7.904 40.1935 7.124 41.2205 7.124C 42.0265 7.124 42.3645 7.696 42.2085 8.502L 41.3505 13L 42.4035 13L 43.2745 8.359C 43.7295 7.644 44.3275 7.124 45.2895 7.124C 46.0175 7.124 46.3425 7.553 46.3425 8.086C 46.3425 8.385 46.3165 8.606 46.2775 8.853L 45.4585 13L 46.5115 13L 47.3825 8.515ZM 57.3613 11.232C 56.6853 11.869 56.1653 12.09 55.3333 12.09C 54.1633 12.09 53.3313 11.388 53.3313 10.166C 53.3313 8.424 54.5793 7.111 56.1263 7.111C 56.9193 7.111 57.4133 7.41 57.7903 8.021L 58.6353 7.462C 58.2323 6.643 57.4393 6.084 56.2433 6.084C 53.9683 6.084 52.2263 7.891 52.2263 10.283C 52.2263 11.999 53.5133 13.117 55.2163 13.117C 56.2953 13.117 57.1403 12.844 58.0373 11.843L 57.3613 11.232ZM 58.8236 13L 59.8766 13L 60.6956 8.528C 61.1636 7.735 62.0996 7.124 63.1006 7.124C 63.9326 7.124 64.4006 7.527 64.4006 8.398C 64.4006 8.879 64.3356 9.165 64.2836 9.451L 63.5556 13L 64.5956 13L 65.3366 9.36C 65.4146 8.97 65.4796 8.489 65.4796 8.138C 65.4796 6.838 64.6996 6.097 63.3606 6.097C 62.3986 6.097 61.5536 6.513 60.9686 7.085L 61.6316 3.51L 60.5786 3.51L 58.8236 13ZM 71.4522 11.167C 70.9582 11.752 70.2302 12.09 69.3982 12.09C 68.2282 12.09 67.4612 11.388 67.4612 10.166L 67.4612 9.971C 68.0072 10.062 68.5272 10.101 69.0082 10.101C 71.2442 10.101 72.6222 9.165 72.6222 7.813C 72.6222 6.682 71.7902 6.084 70.3732 6.084C 68.2672 6.084 66.3562 7.891 66.3562 10.283C 66.3562 11.999 67.5002 13.117 69.1902 13.117C 70.2042 13.117 71.4132 12.74 72.0762 11.804L 71.4522 11.167ZM 70.2562 7.111C 71.1142 7.111 71.5172 7.462 71.5172 7.93C 71.5172 8.541 70.6592 9.165 68.8522 9.165C 68.4882 9.165 68.0852 9.139 67.6432 9.087C 68.0592 7.904 69.1252 7.111 70.2562 7.111ZM 78.2578 11.232C 77.5818 11.869 77.0618 12.09 76.2298 12.09C 75.0598 12.09 74.2278 11.388 74.2278 10.166C 74.2278 8.424 75.4758 7.111 77.0228 7.111C 77.8158 7.111 78.3098 7.41 78.6868 8.021L 79.5318 7.462C 79.1288 6.643 78.3358 6.084 77.1398 6.084C 74.8648 6.084 73.1228 7.891 73.1228 10.283C 73.1228 11.999 74.4098 13.117 76.1128 13.117C 77.1918 13.117 78.0368 12.844 78.9338 11.843L 78.2578 11.232ZM 79.7201 13L 80.7731 13L 81.2411 10.465L 82.0211 9.88L 84.1791 13L 85.4791 13L 82.9181 9.308L 86.6101 6.24L 85.1411 6.24L 81.4621 9.243L 82.5281 3.51L 81.4751 3.51L 79.7201 13Z" transform="translate(744 582) scale(3)" fill="black"/>
</g>
</g>
</g>
</svg>

