<svg width="429" height="377" viewBox="0 0 429 377" fill="none" xmlns="http://www.w3.org/2000/svg">
<path d="M238.865 195.701L244.349 205.182L238.865 214.664L227.898 214.664L222.414 205.182L227.898 195.701L238.865 195.701Z" fill="#0F4D8A"/>
<path d="M238.865 286.271L244.349 295.752L238.865 305.234L227.898 305.234L222.414 295.752L227.898 286.271L238.865 286.271Z" fill="#0F4D8A"/>
<path fill-rule="evenodd" clip-rule="evenodd" d="M72.0011 296.31H44.8223V359.407H59.6758V335.903H72.0011C76.4782 335.903 80.4023 335.114 83.7733 333.537C87.197 331.959 89.8306 329.725 91.6741 326.833C93.5176 323.888 94.4394 320.444 94.4394 316.501C94.4394 312.399 93.5176 308.85 91.6741 305.853C89.8306 302.803 87.197 300.463 83.7733 298.833C80.4023 297.151 76.4782 296.31 72.0011 296.31ZM70.4249 323.126L70.4711 323.206H77.7987L81.4625 316.871L77.7987 310.536H72.9642C72.6535 310.516 72.3325 310.506 72.0011 310.506H59.6758V323.126H70.4249Z" fill="#0F4D8A"/>
<path d="M331.714 310.507L344.118 345.052H352.256L349.254 355.463H333.452L317.098 310.507H331.714ZM355.18 363.903C353.81 368.162 351.73 371.369 348.938 373.525C346.146 375.681 342.67 376.759 338.509 376.759C333.505 376.759 329.581 375.418 326.737 372.736C323.945 370.107 322.26 366.19 321.68 360.984H334.4C334.874 362.404 335.428 363.403 336.06 363.982C336.692 364.612 337.508 364.928 338.509 364.928C339.51 364.928 340.326 364.56 340.958 363.824C341.643 363.088 342.249 361.878 342.775 360.196L357.313 310.507H370.823L355.18 363.903Z" fill="#0F4D8A"/>
<path d="M187.261 292.523V346.787H202.667V359.406H157.633V346.787H173.039V305.143H157.633V292.523H187.261Z" fill="#0F4D8A"/>
<path d="M241.267 219.936V256.216H256.673V268.836H211.639V256.216H227.045V232.555H211.639V219.936H241.267Z" fill="#0F4D8A"/>
<path d="M241.267 310.507V346.788H256.673V359.407H211.639V346.788H227.045V323.126H211.639V310.507H241.267Z" fill="#0F4D8A"/>
<path d="M179.595 219.936H202.349V232.555H179.595V250.696C179.595 253.009 180.016 254.771 180.859 255.98C181.755 257.189 183.071 257.794 184.81 257.794C186.653 257.794 188.075 257.137 189.076 255.822C190.129 254.508 191.025 252.273 191.762 249.118H204.404C204.035 255.954 202.139 261.212 198.715 264.892C195.291 268.573 190.604 270.413 184.652 270.413C178.489 270.413 173.722 268.705 170.351 265.287C167.033 261.869 165.374 257.005 165.374 250.696V232.555H155.893V219.936H165.374V207.316H179.595V219.936Z" fill="#0F4D8A"/>
<path d="M56.9918 205.74H82.2745L97.444 268.837H82.6695L69.9492 215.205H68.369L55.6487 268.837H41.8223L56.9918 205.74ZM53.8315 237.289H85.4348V251.486H53.8315V237.289Z" fill="#0F4D8A"/>
<path fill-rule="evenodd" clip-rule="evenodd" d="M335.309 219.936H321.088V268.836H335.309V252.677H335.287L335.287 242.624L335.287 237.598L335.287 232.572H339.277H349.464L350.388 234.039C350.392 234.044 350.396 234.049 350.4 234.054C350.803 234.542 351.151 235.096 351.444 235.714L352.631 237.598L352.631 242.624L352.631 252.677H352.612V268.836H366.834V239.654C366.834 235.132 366.175 231.293 364.858 228.138C363.594 224.931 361.724 222.512 359.249 220.882C356.826 219.2 353.85 218.358 350.321 218.358C347.635 218.358 345.264 218.911 343.21 220.015C341.156 221.119 339.576 222.67 338.47 224.668H335.309V219.936Z" fill="#0F4D8A"/>
<path fill-rule="evenodd" clip-rule="evenodd" d="M273.472 267.267C277.37 269.422 281.873 270.5 286.982 270.5C292.092 270.5 296.569 269.422 300.414 267.267C304.311 265.111 307.314 262.061 309.421 258.118C311.58 254.174 312.66 249.626 312.66 244.473C312.66 239.32 311.58 234.772 309.421 230.828C307.314 226.885 304.311 223.835 300.414 221.679C296.569 219.523 292.092 218.445 286.982 218.445C281.873 218.445 277.37 219.523 273.472 221.679C269.627 223.835 266.625 226.885 264.465 230.828C262.358 234.772 261.305 239.32 261.305 244.473C261.305 249.626 262.358 254.174 264.465 258.118C266.625 262.061 269.627 265.111 273.472 267.267ZM300.238 244.221L293.61 232.76H280.353L273.725 244.221L280.353 255.681H293.61L300.238 244.221Z" fill="#0F4D8A"/>
<path fill-rule="evenodd" clip-rule="evenodd" d="M111.757 357.751C115.655 359.907 120.158 360.985 125.268 360.985C130.377 360.985 134.854 359.907 138.699 357.751C142.597 355.595 145.599 352.545 147.706 348.602C149.865 344.658 150.945 340.11 150.945 334.957C150.945 329.804 149.865 325.256 147.706 321.312C145.599 317.369 142.597 314.319 138.699 312.163C134.854 310.008 130.377 308.93 125.268 308.93C120.158 308.93 115.655 310.008 111.757 312.163C107.912 314.319 104.91 317.369 102.75 321.312C100.643 325.256 99.5898 329.804 99.5898 334.957C99.5898 340.11 100.643 344.658 102.75 348.602C104.91 352.545 107.912 355.595 111.757 357.751ZM138.524 334.705L131.895 323.244H118.638L112.01 334.705L118.638 346.166H131.895L138.524 334.705Z" fill="#0F4D8A"/>
<path fill-rule="evenodd" clip-rule="evenodd" d="M112.467 267.267C116.365 269.422 120.868 270.5 125.977 270.5C130.244 270.5 134.063 269.659 137.434 267.976C140.857 266.294 143.596 263.928 145.65 260.878C147.757 257.776 148.995 254.2 149.364 250.152H136.519L133.335 255.655H119.304L112.676 244.195L119.304 232.734H133.335L137.844 240.529H150.312C150.154 236.165 149.048 232.327 146.994 229.014C144.939 225.649 142.121 223.046 138.54 221.206C134.958 219.365 130.823 218.445 126.135 218.445C120.974 218.445 116.444 219.55 112.546 221.758C108.648 223.914 105.62 226.99 103.46 230.986C101.3 234.929 100.221 239.504 100.221 244.709C100.221 249.81 101.274 254.305 103.381 258.196C105.541 262.087 108.569 265.111 112.467 267.267Z" fill="#0F4D8A"/>
<path fill-rule="evenodd" clip-rule="evenodd" d="M274.184 357.751C278.081 359.907 282.585 360.985 287.694 360.985C291.961 360.985 295.779 360.143 299.15 358.461C302.574 356.778 305.313 354.412 307.367 351.362C309.474 348.26 310.712 344.685 311.081 340.636H298.235L295.052 346.14H281.021L274.393 334.679L281.021 323.218H295.052L299.561 331.014H312.029C311.871 326.649 310.765 322.811 308.71 319.498C306.656 316.133 303.838 313.531 300.256 311.69C296.675 309.85 292.54 308.93 287.852 308.93C282.69 308.93 278.161 310.034 274.263 312.242C270.365 314.398 267.336 317.474 265.177 321.47C263.017 325.414 261.938 329.988 261.938 335.194C261.938 340.294 262.991 344.79 265.098 348.681C267.257 352.572 270.286 355.595 274.184 357.751Z" fill="#0F4D8A"/>
<path d="M329.567 112.202L331.625 125.878L337.206 140.597L307.917 129.439L305.859 115.764L316.684 107.145L329.567 112.202Z" fill="#0F4D8A"/>
<path fill-rule="evenodd" clip-rule="evenodd" d="M411.998 40.6179L390.546 50.9965L367.76 35.5471L368.947 19.2482C262.03 -4.35119 112.011 -8.53368 46.6886 19.6166C45.9308 19.9212 45.1791 20.2377 44.4337 20.5659L47.7841 32.2776L34.2407 46.2688L16.4483 41.8241C9.70535 50.0411 4.66583 59.7072 1.86876 70.2837L12.087 74.9352L13.9783 94.5563L0.743164 103.99C2.79084 114.576 7.0546 124.372 13.0329 132.878L42.819 124.477L65.427 146.468L61.0503 163.744C65.5211 164.569 70.1299 165 74.8396 165C89.2892 165 102.79 160.943 114.264 153.906C113.322 149.743 112.825 145.411 112.825 140.963C112.825 139.479 112.881 138.007 112.989 136.55L108.953 129.565L137.517 80.1344H194.647L200.408 90.1053C206.045 89.9344 211.758 89.8442 217.537 89.8442C224.824 89.8442 231.787 89.9875 238.439 90.2553L244.243 80.2113H294.366L319.428 123.58L317.938 126.158C328.63 137.955 343.695 145.722 360.577 146.905L359.711 124.667L393.286 103.499L419.109 117.075C425.18 107.338 428.688 95.8406 428.688 83.5246C428.688 66.9855 422.363 51.9224 411.998 40.6179ZM204.643 75.7246L198.907 68.3921L215.46 50.0609L232.013 68.3921L226.278 75.7246H204.643ZM110.695 74.9684L97.99 58.7256L50.0639 58.7256L37.3587 74.9684L74.027 115.576L110.695 74.9684ZM355.538 58.7256L364.508 70.1936L338.619 98.8635L312.73 70.1936L321.701 58.7256L355.538 58.7256Z" fill="#0F4D8A"/>
<path fill-rule="evenodd" clip-rule="evenodd" d="M196.509 104.836L235.271 104.836L256.371 77.8608L215.89 33.0314L175.409 77.8608L196.509 104.836Z" fill="#0F4D8A"/>
<path d="M106.047 125.798L119.998 134.881L119.099 151.494L104.249 159.023L90.2991 149.939L91.1981 133.327L106.047 125.798Z" fill="#0F4D8A"/>
</svg>
