<svg viewBox="0 0 32 32" xmlns="http://www.w3.org/2000/svg">
<path d="M26.7075 10.2925L19.7075 3.2925C19.6146 3.19967 19.5042 3.12605 19.3829 3.07586C19.2615 3.02568 19.1314 2.9999 19 3H7C6.46957 3 5.96086 3.21071 5.58579 3.58579C5.21071 3.96086 5 4.46957 5 5V14C5 14.2652 5.10536 14.5196 5.29289 14.7071C5.48043 14.8946 5.73478 15 6 15C6.26522 15 6.51957 14.8946 6.70711 14.7071C6.89464 14.5196 7 14.2652 7 14V5H18V11C18 11.2652 18.1054 11.5196 18.2929 11.7071C18.4804 11.8946 18.7348 12 19 12H25V27H23C22.7348 27 22.4804 27.1054 22.2929 27.2929C22.1054 27.4804 22 27.7348 22 28C22 28.2652 22.1054 28.5196 22.2929 28.7071C22.4804 28.8946 22.7348 29 23 29H25C25.5304 29 26.0391 28.7893 26.4142 28.4142C26.7893 28.0391 27 27.5304 27 27V11C27.0001 10.8686 26.9743 10.7385 26.9241 10.6172C26.8739 10.4958 26.8003 10.3854 26.7075 10.2925ZM20 6.41375L23.5863 10H20V6.41375ZM8 18H6C5.73478 18 5.48043 18.1054 5.29289 18.2929C5.10536 18.4804 5 18.7348 5 19V26C5 26.2652 5.10536 26.5196 5.29289 26.7071C5.48043 26.8946 5.73478 27 6 27C6.26522 27 6.51957 26.8946 6.70711 26.7071C6.89464 26.5196 7 26.2652 7 26V25H8C8.24063 24.9997 8.48061 24.975 8.71625 24.9263L9.63625 26.5C9.77724 26.7117 9.9936 26.8617 10.2413 26.9195C10.489 26.9773 10.7494 26.9386 10.9696 26.8112C11.1897 26.6837 11.353 26.4772 11.4262 26.2336C11.4995 25.99 11.4771 25.7277 11.3638 25.5L10.475 23.9725C10.9637 23.4829 11.4309 22.1809 11.4309 22.1809L11.2311 20.1601C11.2311 20.1601 10.518 18.9748 9.94295 18.5903C9.36787 18.2059 8.69176 18.0004 8 18ZM7 23V20H8C8.39782 20 8.77936 20.158 9.06066 20.4393C9.34196 20.7206 9.5 21.1022 9.5 21.5C9.5 21.8978 9.34196 22.2794 9.06066 22.5607C8.77936 22.842 8.39782 23 8 23H7Z" fill="currentColor" />
<path fill-rule="evenodd" clip-rule="evenodd" d="M14.5691 18H16.5691C17.2609 18.0004 17.937 18.2059 18.5121 18.5903C19.0872 18.9748 19.8002 20.1601 19.8002 20.1601L20 22.2963C20 22.2963 19.5328 23.1138 19.0441 23.6035H16.5691H13.5691V19C13.5691 18.7348 13.6745 18.4804 13.862 18.2929C14.0495 18.1054 14.3039 18 14.5691 18ZM15.5678 22.2963L15.5691 20H16.5691C16.9669 20 17.3485 20.158 17.6298 20.4393C17.9111 20.7206 18.0691 21.1022 18.0691 21.5C18.0691 21.8978 17.9111 22.015 17.6298 22.2963C17 22.2963 16.9669 22.2963 16.5691 22.2963H15.5678Z" />
<path fill-rule="evenodd" clip-rule="evenodd" d="M15.5678 23L15.5691 23.2153C16.2609 23.2157 18.5 24.0698 18.5 22.5C19.0751 22.8845 20 23.6035 20 23.6035L19.8002 25.238C19.8002 25.238 19.5328 26.5104 19.0441 27H13.5691V23.6035C14 23.6035 14 23 14.5 23C14.8842 23 15.3025 23 15.5678 23ZM15.5691 25.8718V23.2153L16.6452 23.1768C17.0431 23.1768 17.5 23.2241 17.6284 23.3111C17.9097 23.5924 18.0678 23.974 18.0678 24.3718C18.0678 24.7696 17.9097 25.1511 17.6284 25.4324C17.3471 25.7138 16.9656 25.8718 16.5678 25.8718H15.5691Z"/>
</svg>
